<mxfile host="app.diagrams.net" modified="2024-02-17T21:06:33.870Z" agent="Mozilla/5.0 (Windows NT 10.0; Win64; x64) AppleWebKit/537.36 (KHTML, like Gecko) Chrome/120.0.0.0 Safari/537.36 OPR/106.0.0.0" etag="_OGar3wpOHfTaN9n_kdO" version="23.1.1" type="device">
  <diagram name="Page-1" id="cHxKLHfWiVLfcLmH3lwO">
    <mxGraphModel dx="1393" dy="835" grid="1" gridSize="10" guides="1" tooltips="1" connect="1" arrows="1" fold="1" page="1" pageScale="1" pageWidth="827" pageHeight="1169" math="0" shadow="0">
      <root>
        <mxCell id="0" />
        <mxCell id="1" parent="0" />
        <mxCell id="82N6wQEssHolpWWJ5OSr-5" style="edgeStyle=orthogonalEdgeStyle;rounded=0;orthogonalLoop=1;jettySize=auto;html=1;exitX=1;exitY=0.5;exitDx=0;exitDy=0;entryX=0;entryY=0.5;entryDx=0;entryDy=0;strokeColor=#007FFF;" parent="1" source="82N6wQEssHolpWWJ5OSr-1" target="82N6wQEssHolpWWJ5OSr-4" edge="1">
          <mxGeometry relative="1" as="geometry" />
        </mxCell>
        <mxCell id="82N6wQEssHolpWWJ5OSr-1" value="Overall degree" style="ellipse;whiteSpace=wrap;html=1;aspect=fixed;strokeColor=#007FFF;" parent="1" vertex="1">
          <mxGeometry x="145" y="350" width="80" height="80" as="geometry" />
        </mxCell>
        <mxCell id="82N6wQEssHolpWWJ5OSr-3" style="edgeStyle=orthogonalEdgeStyle;rounded=0;orthogonalLoop=1;jettySize=auto;html=1;exitX=0.5;exitY=0;exitDx=0;exitDy=0;entryX=0.5;entryY=1;entryDx=0;entryDy=0;strokeColor=#007FFF;" parent="1" source="82N6wQEssHolpWWJ5OSr-2" target="82N6wQEssHolpWWJ5OSr-1" edge="1">
          <mxGeometry relative="1" as="geometry" />
        </mxCell>
        <mxCell id="82N6wQEssHolpWWJ5OSr-2" value="&lt;br&gt;&lt;br&gt;&lt;br&gt;Start exploring" style="rounded=1;whiteSpace=wrap;html=1;fontStyle=1;fontSize=14;strokeColor=#007FFF;" parent="1" vertex="1">
          <mxGeometry x="125" y="470" width="120" height="100" as="geometry" />
        </mxCell>
        <mxCell id="82N6wQEssHolpWWJ5OSr-7" style="edgeStyle=orthogonalEdgeStyle;rounded=0;orthogonalLoop=1;jettySize=auto;html=1;exitX=1;exitY=0.5;exitDx=0;exitDy=0;entryX=0;entryY=0.5;entryDx=0;entryDy=0;strokeColor=#007FFF;" parent="1" source="82N6wQEssHolpWWJ5OSr-4" target="82N6wQEssHolpWWJ5OSr-6" edge="1">
          <mxGeometry relative="1" as="geometry" />
        </mxCell>
        <mxCell id="82N6wQEssHolpWWJ5OSr-4" value="College overview" style="ellipse;whiteSpace=wrap;html=1;strokeColor=#007FFF;" parent="1" vertex="1">
          <mxGeometry x="330" y="365" width="120" height="50" as="geometry" />
        </mxCell>
        <mxCell id="82N6wQEssHolpWWJ5OSr-9" style="edgeStyle=orthogonalEdgeStyle;rounded=0;orthogonalLoop=1;jettySize=auto;html=1;exitX=0.5;exitY=1;exitDx=0;exitDy=0;entryX=0.5;entryY=0;entryDx=0;entryDy=0;strokeColor=#007FFF;" parent="1" source="82N6wQEssHolpWWJ5OSr-6" target="82N6wQEssHolpWWJ5OSr-8" edge="1">
          <mxGeometry relative="1" as="geometry" />
        </mxCell>
        <mxCell id="82N6wQEssHolpWWJ5OSr-6" value="Schedule" style="rounded=1;whiteSpace=wrap;html=1;strokeColor=#007FFF;" parent="1" vertex="1">
          <mxGeometry x="520" y="370" width="110" height="40" as="geometry" />
        </mxCell>
        <mxCell id="82N6wQEssHolpWWJ5OSr-11" style="edgeStyle=orthogonalEdgeStyle;rounded=0;orthogonalLoop=1;jettySize=auto;html=1;exitX=0.5;exitY=1;exitDx=0;exitDy=0;entryX=0.5;entryY=0;entryDx=0;entryDy=0;strokeColor=#007FFF;" parent="1" source="82N6wQEssHolpWWJ5OSr-8" target="82N6wQEssHolpWWJ5OSr-10" edge="1">
          <mxGeometry relative="1" as="geometry" />
        </mxCell>
        <mxCell id="82N6wQEssHolpWWJ5OSr-8" value="Disclaimer" style="rounded=1;whiteSpace=wrap;html=1;strokeColor=#007FFF;" parent="1" vertex="1">
          <mxGeometry x="520" y="450" width="110" height="40" as="geometry" />
        </mxCell>
        <mxCell id="82N6wQEssHolpWWJ5OSr-13" style="edgeStyle=orthogonalEdgeStyle;rounded=0;orthogonalLoop=1;jettySize=auto;html=1;exitX=0.5;exitY=1;exitDx=0;exitDy=0;entryX=0.5;entryY=0;entryDx=0;entryDy=0;strokeColor=#007FFF;" parent="1" source="82N6wQEssHolpWWJ5OSr-10" target="82N6wQEssHolpWWJ5OSr-12" edge="1">
          <mxGeometry relative="1" as="geometry" />
        </mxCell>
        <mxCell id="82N6wQEssHolpWWJ5OSr-10" value="Internship" style="rounded=1;whiteSpace=wrap;html=1;strokeColor=#007FFF;" parent="1" vertex="1">
          <mxGeometry x="359" y="530" width="110" height="40" as="geometry" />
        </mxCell>
        <mxCell id="82N6wQEssHolpWWJ5OSr-15" style="edgeStyle=orthogonalEdgeStyle;rounded=0;orthogonalLoop=1;jettySize=auto;html=1;exitX=0.5;exitY=1;exitDx=0;exitDy=0;entryX=0.5;entryY=0;entryDx=0;entryDy=0;strokeColor=#007FFF;" parent="1" source="82N6wQEssHolpWWJ5OSr-12" target="82N6wQEssHolpWWJ5OSr-14" edge="1">
          <mxGeometry relative="1" as="geometry" />
        </mxCell>
        <mxCell id="82N6wQEssHolpWWJ5OSr-12" value="Printing process" style="rounded=1;whiteSpace=wrap;html=1;strokeColor=#007FFF;" parent="1" vertex="1">
          <mxGeometry x="130" y="610" width="110" height="40" as="geometry" />
        </mxCell>
        <mxCell id="82N6wQEssHolpWWJ5OSr-17" style="edgeStyle=orthogonalEdgeStyle;rounded=0;orthogonalLoop=1;jettySize=auto;html=1;exitX=1;exitY=0.5;exitDx=0;exitDy=0;entryX=0;entryY=0.5;entryDx=0;entryDy=0;strokeColor=#007FFF;" parent="1" source="82N6wQEssHolpWWJ5OSr-14" target="82N6wQEssHolpWWJ5OSr-16" edge="1">
          <mxGeometry relative="1" as="geometry" />
        </mxCell>
        <mxCell id="82N6wQEssHolpWWJ5OSr-14" value="College materials" style="rounded=1;whiteSpace=wrap;html=1;strokeColor=#007FFF;" parent="1" vertex="1">
          <mxGeometry x="130" y="690" width="110" height="40" as="geometry" />
        </mxCell>
        <mxCell id="82N6wQEssHolpWWJ5OSr-20" style="edgeStyle=orthogonalEdgeStyle;rounded=0;orthogonalLoop=1;jettySize=auto;html=1;exitX=1;exitY=0.5;exitDx=0;exitDy=0;strokeColor=#007FFF;" parent="1" source="82N6wQEssHolpWWJ5OSr-16" edge="1">
          <mxGeometry relative="1" as="geometry">
            <mxPoint x="520" y="710.1764705882354" as="targetPoint" />
          </mxGeometry>
        </mxCell>
        <mxCell id="82N6wQEssHolpWWJ5OSr-16" value="Semester 1" style="rounded=1;whiteSpace=wrap;html=1;strokeColor=#007FFF;" parent="1" vertex="1">
          <mxGeometry x="310" y="690" width="110" height="40" as="geometry" />
        </mxCell>
        <mxCell id="82N6wQEssHolpWWJ5OSr-18" value="Materials Website" style="whiteSpace=wrap;html=1;aspect=fixed;strokeColor=#007FFF;" parent="1" vertex="1">
          <mxGeometry x="535" y="610" width="80" height="80" as="geometry" />
        </mxCell>
        <mxCell id="82N6wQEssHolpWWJ5OSr-19" value="END Project" style="rounded=1;whiteSpace=wrap;html=1;strokeColor=#007FFF;" parent="1" vertex="1">
          <mxGeometry x="525.5" y="690" width="99" height="40" as="geometry" />
        </mxCell>
        <mxCell id="82N6wQEssHolpWWJ5OSr-21" value="" style="rounded=0;whiteSpace=wrap;html=1;fontColor=default;fillColor=none;strokeColor=#007FFF;" parent="1" vertex="1">
          <mxGeometry x="100" y="330" width="550" height="440" as="geometry" />
        </mxCell>
        <mxCell id="82N6wQEssHolpWWJ5OSr-22" value="" style="shape=image;verticalLabelPosition=bottom;labelBackgroundColor=default;verticalAlign=top;aspect=fixed;imageAspect=0;image=data:image/png,iVBORw0KGgoAAAANSUhEUgAAAZAAAAGQCAYAAACAvzbMAAAACXBIWXMAAA7EAAAOxAGVKw4bAAAEeWlUWHRYTUw6Y29tLmFkb2JlLnhtcAAAAAAAPD94cGFja2V0IGJlZ2luPSfvu78nIGlkPSdXNU0wTXBDZWhpSHpyZVN6TlRjemtjOWQnPz4KPHg6eG1wbWV0YSB4bWxuczp4PSdhZG9iZTpuczptZXRhLyc+CjxyZGY6UkRGIHhtbG5zOnJkZj0naHR0cDovL3d3dy53My5vcmcvMTk5OS8wMi8yMi1yZGYtc3ludGF4LW5zIyc+CgogPHJkZjpEZXNjcmlwdGlvbiByZGY6YWJvdXQ9JycKICB4bWxuczpBdHRyaWI9J2h0dHA6Ly9ucy5hdHRyaWJ1dGlvbi5jb20vYWRzLzEuMC8nPgogIDxBdHRyaWI6QWRzPgogICA8cmRmOlNlcT4KICAgIDxyZGY6bGkgcmRmOnBhcnNlVHlwZT0nUmVzb3VyY2UnPgogICAgIDxBdHRyaWI6Q3JlYXRlZD4yMDIyLTEwLTMwPC9BdHRyaWI6Q3JlYXRlZD4KICAgICA8QXR0cmliOkV4dElkPmI4YWNlYzJkLTkwNTQtNGE4Mi1iMTlkLWI0Y2JkMTQzZDU4YjwvQXR0cmliOkV4dElkPgogICAgIDxBdHRyaWI6RmJJZD41MjUyNjU5MTQxNzk1ODA8L0F0dHJpYjpGYklkPgogICAgIDxBdHRyaWI6VG91Y2hUeXBlPjI8L0F0dHJpYjpUb3VjaFR5cGU+CiAgICA8L3JkZjpsaT4KICAgPC9yZGY6U2VxPgogIDwvQXR0cmliOkFkcz4KIDwvcmRmOkRlc2NyaXB0aW9uPgoKIDxyZGY6RGVzY3JpcHRpb24gcmRmOmFib3V0PScnCiAgeG1sbnM6ZGM9J2h0dHA6Ly9wdXJsLm9yZy9kYy9lbGVtZW50cy8xLjEvJz4KICA8ZGM6dGl0bGU+CiAgIDxyZGY6QWx0PgogICAgPHJkZjpsaSB4bWw6bGFuZz0neC1kZWZhdWx0Jz5Db21wdXRlciBFbmdpbmVlcmluZyAtIDM8L3JkZjpsaT4KICAgPC9yZGY6QWx0PgogIDwvZGM6dGl0bGU+CiA8L3JkZjpEZXNjcmlwdGlvbj4KCiA8cmRmOkRlc2NyaXB0aW9uIHJkZjphYm91dD0nJwogIHhtbG5zOnBkZj0naHR0cDovL25zLmFkb2JlLmNvbS9wZGYvMS4zLyc+CiAgPHBkZjpBdXRob3I+WWFoeWEgQWJ1bGhhajwvcGRmOkF1dGhvcj4KIDwvcmRmOkRlc2NyaXB0aW9uPgoKIDxyZGY6RGVzY3JpcHRpb24gcmRmOmFib3V0PScnCiAgeG1sbnM6eG1wPSdodHRwOi8vbnMuYWRvYmUuY29tL3hhcC8xLjAvJz4KICA8eG1wOkNyZWF0b3JUb29sPkNhbnZhPC94bXA6Q3JlYXRvclRvb2w+CiA8L3JkZjpEZXNjcmlwdGlvbj4KPC9yZGY6UkRGPgo8L3g6eG1wbWV0YT4KPD94cGFja2V0IGVuZD0ncic/PsOnYVsAACAASURBVHic7J13eBzVvf7fU2a276r34t67sXHBEHoPvfdix0ASQm4SQsovpNybhJSbRicYAwEuhNBjTAtgG1wxxd3gKstFllW2z8w55/fH7sqSLPeyKufzPH4QWu3qO9qZ8+77LWcAjUaj0Wg0Go1Go9FoNBqNRqPRaDQajUaj0Wg0Go1Go9FoNBqNRqPRaDQajUaj0Wg0Go1Go9FoNBqNRqPRaDQajUaj0Wg0Go1Go9FoNBqNRqPRaDQajUaj0Wg0Go1Go9FoNBqNRqPRaDQajUaj0Wg0Go1Go9FoNBqNRqPRaDQajUaj0Wg0Go1Go9FoNBqNRqPRaDSdCJLtADSaI0Vg8t0YO++3MEqABb3vgorXQ8R2QkR3wNq5GsxdQIz8vgSUEEgBJZJQVpxIOwrlJKCcJJQdh7SigHLavjg1QN0hUNMHYnhBuRvgJghzKcJMEBBlx+qVvWO5MnJ7g/mLwDwFoP4CUG8IoAzKTqJ57v9m54+j0RwFtIBougy+Ud9BMPQnXPb+FZgxqQQqugN23UrY0QbiKuhPlEgSEd1B7IYNgEjKS5WSc699Bc1LZyK24iUAgFE4FJAWlJ2AdKJQVhzKiR9aQMwENf0g3A0QAtFcC0CB5feHb8BZyJ38Q2z8fTkAMBYoIzxQCurOVVI5ytqyWLpKR8HI7w/4i+AyvZDxBuySBPhYi4yma8CzHYBG057Q8d9C06Z/I9D/XFBLwWnajPjm+RCNn9CGxpPI/aE5RDTXyiGPKrnhvrOQ3PqpsilT0o5CRre3vM4LABl28gVmcvvnPLbiJVB3YYD5CvtAJAukHQ8S2+2TLOqTSW4qJ8YgBUXqQ9XePlgpAALc41DDbcPwWMzwJ4nhbSSUb5cKNSq8pY5585W7coIov67M2fh72ACECNdChGtBXCEoKwwoCaOgH65d/DgeJIQl8voRFqpUbukoK1Auvb1OAAlUwvR5ISN1aIh6gc//cPT/+BrNQaAdiCaruE/4IfzNa8FD5YgJCrFzDRJ1q4iZ15c4zTXUrlspyqbOUbWPTgG4F4QQKDsKALhEKf7e5DvNhoWPe13Fw0ZIq7m/07QxV1lRF4C+zFc0AJQXQsmAcuKGko5BzaCX+fIJdeeAugIgzAChBgjlQPprMA5KjZSzoBTKsQAloJQClASUhFISSiQhE83pf40QsZ0JmYxYxPA6hLG4kqpZObEtMlb/BYB66i2IUU/+dikSa2TjxtV5Z/xK1M/+cYyQ1GVIzACUkwCkQP/fC6z9HmFm8XDC/CXSalinXLl9FS8cDCITsOtWwCibiKZ592XvzdP0eLSAaI4pvkl3weh7Mpy6NcCWhUju/JJwTx51GtcTe9dXsvTqV+TWZy4A8RRAxXcCAIb9Q7mWXcM4z+s7EMoZ6zSsLwblg3igbJhSskRZUR8LFPuNYAWYrwDMVwjuLwb1FYJ5csG8+WDefFBPHpjpB7gpCTMVYQYIgQKFAgFIK/9BCACaDlrt/qd2f03SWkKU4xAlLAphQzpxyNguiFg9nOgOiGgdRLQOMtEEmQxDJJrghGul07A+AmpEIMV6p2nTYgDbeH7/HUo4n4qmzWtOs+3EO5w4AEC9hZCxOhRf/DS2/+taYhYPZ9RXKEXTFunpfSJeth7F2Z8DxphvIfLJX4/1W6rpwWgB0RxVQhPuQtP8/0UhgOTI6xDd+ikx/EU0ueED8n1hO38oHAKiBJz6NQCAoQ8oc/ntxG8UDZto168dCiXG8GD5GOUkCnmgNGAWD2M8VAnuLwIPloPnVMEIVYK6QoqaXkkMIqkJACBKgECCKAW0/FchpQLpbyqF9DfT3099QaCgWr6fejkCkvkGafkWQEBIK/VJfblbkCgUYZAAoGwQ5YBK26LSisBpqoFVvxZ2wwaI5q1wIttg7VwtnObaZsLMGqdxwxww13qjcNAqu27Vx4N+m4is+h5JAgANlIP7y2BtXQQWKONm0RAl4k3SXTpC+XfORXM0ATLwSoTn/fZovK0aDQAtIJqjQHDc7TDz+kLE6xFb9x6Iy0edhg3U2fWVQ4uGg4oEnPq1AABXnzOKYYenJDcv6AfIwTyn12RAFZn5/QJGfj8YOb1gFg+Fq3g4eKAY1O0R1AUJCaJkSiSUAEE6vaSUBKRIBZJa4Mnur4GDPeUJIanU1QHTRoxU2rYQAAqEAoSCEApQCkKhCN8tMDIJKpNJ5kS2IbntM1jbl8Nu2ABr52pY9V+GCehOp7lmAXEFF/P8/vPM3H6fR5c/FwMAntcPzF+C5Ka5xCwYxGiwTMpkWHp7nQzuC8Bu3ISmXS7gy78d1PFrNPtCC4jm8Bk7DUFpwcjrCztah8SmeWDuHBZf9y6KL39B1P/np3DqVgEAzCGX5KFxwylW7ZLRxJ1zCiFkOA+U+lwlI2EWD4Wn4ni4SkeCefMUdTOHsNSnduUASiqipJMSiNTHfpX+1E/an8qZhZ+Q7J7imRg6FiGl0m4oJTCUghAGMKooBwiHUAIQcYeL2E6SrF2KRM1CWDtWIrF1qZKJ5nppRRcrKzzPVXH8cp4/6IPoZzN3AQDP6wv/cVPR+NYPqbv6BCIcW7iKh8JPFWKNm2GVHIfE3N8c2z+GptuhBURzaBx/D3LDy+DNq0Rz3EJi+3JQzllywxzlHXqxtDYvhNNcg+MXKf7pZSeOTG755FRI5zRiuI83ghVBd+V4uMvGwlM9CWbBIEl9HkE5iLRBlYPUnIYUgJIEhKo2bgKdRyAOl44FJiMsqWMnlAGUgRpQxICUFiCiEW7tWIn4po+R3PYZEpsXwIlsa5TJ8BxCjQ/N0pH/qfzevM+//DaxWbAcPH8wkuvfIe6ysQxGQDCXVxHDA+VYiK5+LWvHr+nadO2rT3Ns6fdN+P118OT1QqJxB5K71hHixFmyZqE0+54hnW2fQkZ3IO/s33nDCx852a7/6mzqCZ1NuKe3u2wMcVccB2+/0+EuGy2Z3yMIAZUWqBIKSjiAEmmxoED63Gy9uHZ1sThQWh/vbmFpJSqUKUI5CCeKGlBKQoponCVqP6Wxde8hsWUJkjWLpHQSm2Vs59s8t+97nkEXvBn++I8NzJ0Do3gkEhs/oO6qEwgYF+7qiTCLhyC+fi7CCx/O3oFruhw944rUHBbecbcheNEDiLz3azjr3wMRNotv+EC5Bpwj7ZoFkLF6+CbelRtf+eIZsmnL6cxXdI6RU1XqrhwHT/UUeHqfBCOn2KZmWjAcBSXsVJ2AUmScRU8UiwNlr6IiJQEhqY4yTkBNCGlBOc07jfjGeYitex/xDXNg71rXIJPN7/JAyWxP79P+Hf5sZi115SA05QdoeOdHzNP3NCWEkObAryN493ew6/u3I7HkwewdsKZLoK9STYf4p9wDsfo1DNn+BVb0OxOEmySx7j3a6zdRsennlXCaaxCY9J3C2PIXzxHNW8+inpwzzIIBed6+p8A/6OtwlY2WzMcFJJi0QJSwAdnWYWjBOHQ6EBSVnlFJORRmpFJeDMKJOjSxeT6LrHod8fUfwKpbFZdW7A3mzZ9ZfMXz79T+fUqCBkoxobkWC/yF3CwfL4hw1HVfzsbjuVXwDL0azbqbS9MB+qrVtCEw7lb4hpyLxMaPkNj8OVSsjiW3fiJdlZNUcvNHOEsp/k5+/1Odps3XUMNzvlEwIMfb9xQEBl8Id+V4wbxESgtM2ZIoaadelOzpMrRgHFk6KNKnBAWKEGooYlBQA0LEFRJblvDoqjcQW/8+rLqVG0W88RUeLH/e3vXVPEIIeNEwODuWEbN0FGWBCuEuG4PgiGux66M/ILxYp7g0u9FXsQbeKT8CrZmLnPUfor7/WaDMoNFVr5HQiT8RTfPuA4QFT78zB8U3zLmSUHalkdd7oK/fGfAPvRieqgmCeYiSNpiyBZRwWhW9d7sMLRjHlnbF+VZiwhUxGKgJIeKg8U0f08iKVxD76l3YDes/k8nIC66K4/6Z3DhvNQhB7ll/RMOsu5h34HkKti2j62Yj0HsyRMnXEP/4v7N8lJpso6/qHkxo4p1o+vjPUEohMPpmOPUrWWLzfOUqGyOTtZ+g5LrZvrqXbjxfxHddy31FZ7qrJ/HAsEvhH3S+5AGXbBEN6aRaatulprRodA72FBOValigXFEXV5RDOJEkj331HomsfAWxL9917OYt71B3YGbZTe+9UvPXYXGz/DhYWxZTV+XxhBcNE1UjpmHljOMRmvBtNM3/S7YPUZMl9BXeA/GOuQWxT/4Oevnr8K1+Dokti5m9c5UgrhBUsgnuyokDk9s/v5Uw8yqzaGi5f9D5CAy/HK6SXjYAJhOSKGlr0eiC7MWZgFAD1EUlKKS1c5sRWfZPhJe/hOTWzzZJO/qsu2Lck4kNc1ZQTy5kvAG8YADzVE4W4U8eBwiBd+ytiC15LMtHpznW6Ku9B+EdfStiSx+Dx81BB15NEl/NZlXf+dJZ/6sAAICFqs8S0R3TjJzK8719T+WB4VfA2+ckwdxQIgmmbAuAIiBMQYtGl6cDMSGAUoS7wNwQIgkSXzeHNX/2DGJfvi2c5i2v0WD5A2LXV28DQL9fK2z4dSUz+5wiJr0zE+8UEHjH3oLYkr9n98A0xwy6/x/RdHW8o28FAKj65fCNupFYJMjMsjFKRLY7JV/3G9RbcB1xBRdyf9GsgtN+cVHl1A946RUPOL4BJ0klHOpEklw5dmobDsqBVh88tHh0XVp2Ac7UqygDCIMSNlLvuUO9/afI0isftCunfsjyvvbjC5nhfYsY3oXUV3xj5VRwp7lG8JKReK8ij3lH30REYx0AwDP6puwdmOaYoQWkG+MedUvqi/BGeEfdRKyda5hZOlqJ+C5hlowKEXfud+efEFzhLh/zZMlFj4yrmv6RKDzjew4PlCgRSTKZsNIrDEPLzoFILThaOLoXrd7P1F7EhAEAZMIiIpLkPFSmis75iVN123xZdN6fx7kKBsx4vzy0nLiC3zRLRvplokGYJWOU2LGYB46bBmo1AAB8I7WQdGe0gHRDfCNuBAAoGYZ/7K1IbvucuyomKRGrF67SMUHiybt7xz/OW+EuH/OH0suf6ld5y2wndNwVghCSchvCBggDoSy1f0haMLRodH/avdeEUEZauxJquEnuCbeKyukfOqWXPTXA2+fkv+76v8tXEVfw+2bFRJ8TrnX8o29AcssnPDDh21DCAgD4j7s5q8elOTpoAelGBMffAQAgsJA7+fsQmxcx35BLICLbHVflRD9x5/5g+9PnrPSUj/1N2ZXPllVNe8cOjrpASttmIpZkSimk6htt3YamZ9KBK1FKSohokinHYcGRXxeVN7/slF/7crmv32n37Xz6jJXEHfp2cNQkl9O4ySn91p9hb13EcqbcDRVrBJDq/NN0H/Tq0A0Infh9RD99Ft7hV4LnVCC88BF26Y7l4llC0Oc3yrP+Z7m3AfIuT9XEitxJd8I/9GyHEFCRsCmUVCAsU0zVoqHZK62m35XK7MsFKOo2FSGQkdXv88Z5f0ZswwfrlJS/OyvR+OgsQoRSCq7iYSznzN8ItW0poqvegKw+We8G3A3QK0VXZvw98Nd9hOCgC6HKJmLXrDtYsnaJIIYP0ooQ5i+5VTnxH3l7ndArZ+K34R9yZivhUCp1bwotHJqDowMhAQDC3KYEgYyseIc3fPwXxDfOWwng1zK+6ylQA5A2cVefQBIb58riFxTCP7sYsRUvZfNQNIeJXjG6KP6hlyOy/HmYoXLwgsE09tU7YMFKKZo3g+f1vUw0b/2pq3zM8LwTf4DAiPNtAjAtHJojyV6FxGNKpSAjy2fxxvn3I7Zh7lLmDt3rNG16lef1hbPrK+YbeokksR3Kql0C0v9CJJc9k9Vj0RwaugbSxQiO+wYAQCqFwLjbYUfrOQAJQDJf4elgrrmUu58vOu9Pw6umz3GCI86XMm4ZIm4RgKTuLQEQpRTRhXHN4ZA5f9IfRNJtwFSJuEVkwuKBYWeLiptfd0oufmw0D5S+AsPzJvXkjQUgQJhK1H/FAyf/Ai6PH0ZuJXIm/yDbh6Q5SLSAdBX6fRO+gefCO+BMjPingr1zJSu99X4oJ+GwQNkAcM8rIrr9rfyv/Why9e0LRe6UqUI5DhfxJG25KZEWDs1RYB9CwqRl89DYS0Xl9Hmi4JR7z5Sx+sXE8D1q5vUudpprnfo3v4dkzSJqN2xG47z74Bl8YbYPR3MQ6FWkC+AediWc9bNg5PUD8ZfT2MpXQX3F8szINj7bV/hjiOSPAiOuMvNPvVeYRaWQcUWVsAgIUzpVpTnW7JnaEoRQrpiXieSOraz+vV+Q8PIXdynh/FglGh5i3kKIWB3zjbxOisg2ldgwD74hFyP6xdNZPhLN/tAOpDMz9m54+50KT8lQ5F/5OuyGGk7cIQlA8kDpebO4a7lZMPDe8uvfMEuvetjhoVIqwgmmpAChXEE7Dk0W2NORcKWUghNOcB4qRemVD9rl172W5+01+UFi+j+m3oJxAAQvHq6chnW84o5P4CkZCm/fU4Cxd2f7cDT7gGU7AE3HeIdeCqx5BYS7oKwYbXjrB5BWVHoHnVdtbfnkUSjxq4JTfppfeumjtlFQTWUsyaBU661GtHBoskoHqS2lpICyHGYWVsvg6KsF85VVxTd8OFU6iby8U3/5UfPc38WbF/yVENNHRWSrkjXvwTfoItg7lmX7cDQdoB1IJ8Q76AJ4+52HkW9vhxPbybmvSAJQLKfXtKa5f1zuH/z1y6pvXyjyT/uukLZjyIQFQrkihGrHoel0tBYSktpPTcmERWXC4rmTbnSqvjFHBYdf/u1tj5+0goUqrgSgiOGRIt7Ab4vugn/4ZfANuSjbh6HpAC0gnQj/6JtBvIUQ8QbE179NFp9AqNNU6xj5A0vB3a9Qxh8uu/I5X/kNz9g8p5yKcIIBUIQyKKWI3hlX05nJiIhSihDKFAhVIpLgzF+Esmset0sv/0c5cwWfBfe8zAsGFzuNm5wHCGGRFS8TJ1oPuHIRPP62bB+GphVaQDoJnqGXYsgnf4eK1UFEtzOjcJgCIFlu1RX17/54RXDElV+vvmOJExx1gRTRpKEcG4QZus6h6VLskdZihlLChogmjeCor8vq2xc6OeOnXdC84G/LWKjyYgDC3ftUJeM7GZINaF7wILxDLs32YWjSaAHJMr5JP4CreBi44cXa034FANyJbBfu/meEiOl7ihL6XOkV/8gpu2aGTd1BJqJJSghXhFDdXaXpsnSU1hKxJCXcxUov/ZNdfs2LBTxQ+iIx/Y8VXX29y27cLADw/LP/AMMThLtsJHyT9NxIttErTxbxDLkE9lezQdwhGIVDaOzLtyUAmGVjTrfrVs/wD7ukvPi8PwseyiEilp7n0MKh6Wa0bfuVgBSEed1SxJNqxxt3sealT68xCgfcaG1Z8jEAePqeSp26FVIlwzD6non4ihezGn9PRjuQLOEbcgkCI2/ArYkwlHA44W4JANST/wsR3vpW8YUPlZdfO9OmnhwqokmaLpJDp6s03Y093AgzlIgnKWEmLb3iAbvkokcGqHjjR9Sd+xMAgLSldGw+LRFGYMS18A25JMtH0HPRAnKM8Z94N1heP0iRROyrN8lDhDAn3uAYRUOqwVzvu4qH/rRq2hyVM+FaIaJJQwkbhHHVUnzUwqHpprQtsnOlpAMRSRqh8VeKylv/A0+vE35JDO9/eF7/ahHb6TxACIt99Q6RwgYtHIycCXpm5FijV6NjiH/4lYisfAnEFYSraCit+u//yDVXE/D8/peJ8LbHcsZPCxae+3ubEHCZTBBQrifJNT2SdEdh6mbtwibUdCswODvf+R+jYd6fmqnhv9VpXP9C/ycUNv/iVGrVrZBINME77DJElj6Z7fB7DHpFOka4hl6C5PJUrpYGy7lZOsqJr3odzJv/EHWHvlF0/l8RGnWuI2KCKylaWnMBLRyankmb2ogUBISA+w0nsmIO3/bSVDiR7Q/LeMN0z6DzYW/9jIvmzQ4AuAZfgOTKV7Iae09Bp7COAd7BF8BdMhxl310NAFwpON6+p1YQZn7sLj/uG9W3LRDBEedKJ5xI5aq0eGg0Led+y9wIiHKaE9w3YIqsmv6R8FRO+Abhrrn+geeWQFgOAeOTlYJ/yIXwDdOtvscCLSBHkcDku8Hy+kKJJERTLan940AKwDHz+p7c8NaPPssZ/40JlVNn2zxQSEU0QQkz1O5ioi6UazTt5kZSBfZYkjJfHq2cOsvOnfityfWzvveZUTBgkoJw5hHCRMNGUMMLT68TgRH/le1D6NbovbCOEqHxt6F54YMAAZgnj5Z845+q4c2fK5ZT9S2nadNzRef+r6fwnJ84KuEYSjggjO8ertLCodG0IX1N7N5TSzhQQrHgyLNs5q8Khr944RZi+tYrK/JpYv374Lm9qYhuV3L7HATHTEOyZn6Wj6B7oh3IUcAz4Cw0L3oIkEkwV4jRQLlcdycB9eQ+Qanxl4obZyF3yq1CRJJctdqKBNApK41mb7RLaQGAcsIJI2fitaLiplkwgqUzqTf/DwDgqpwkAcVUdBea5/8JwZHXZDHy7osWkCOMa+CFiK95E0opUF8Jp55cERx1UwGo+bGrdNQNVbctcHx9J0gRTrDW9+vQKSuNZv+0nRkhqZRWOMHcFcNl5dQPhbvi+O/C8L7c9/XvG4pyQbz5HACaP/sHXIMuyHb43Q4tIEcQ39DLERw3HdOVAmEmp4bH8VZNGLbt6bMWBkZcMaFq2ns29+czEUvS9D5W0LMdGs3B02pmBIQZSiaSlLr8tPLmN+zgyKsuWOxxLw4MOL+aMJdDuJsDQOjEe+Edelm2Q+9W6BrIEcI/+EIY+f3APXn44PJhHEo4ZsnIkyMrX/kg74T/Kiy97H5bWTIzGKjrHRrNYdJBXYRAERYcfYGtLKesYe7vrnVXHDfXrv9yE6B47hm/liJWD+rOgb1jeZaj7x5oATkCePufBeYrBHUFSf2sOwkAyQsGXWPXrXyl6Jw/8sKzfuiImG0AukVXozmStLqGCKFUKSWhLMECw091qLvU37zk8VtYqHKVjNd/0Tz3tzQw+jpFiALzF8HesSKboXcL9Ap2mHh6nQTmzQfz5JHGxY8qQghYqPoelWz6n5LLZiI0+uvCiST3qHdoNJojS2Z6XSkFSIfwgNtp/uJtvu2FG6AInS7DWx4GQPPO+p1ymmuU07ARsZUvZzvsLo12IIfK5B/AJR1QVwDE8NIzP31SXUEIeLD8b4TgnvIb/y39g09WIpJgrbck0eKh0Rwd2lxjhEImLeauGCh8fc+mkRUvnQfK48qKzo1/+Tbx9j2NEELAg2Wwd67JduhdFi0gh8KUe+Ba8zqI4QYxfbTqm/+SH44nYL7CmdQdmlp563uOp3ww6Wg4UKPRHD1arjUAhDLIpEXN/FLpG3A+osv/dboixFR27N3Ehjnw9DqBAAAPlsKu/zLLkXdNdBfWQRI44R7w5S9AEQYwF809/T658g4C6s59jvmLr6+c+oFjFlQzEUuJh95FV6M5thBCoFJ36kxPrieoWVCtKm59T3J/yY+or/CPALBi3p8UYSYhph+evqdmO+wuiRaQg+H4exBb/hxAKGB4qGfQhXLL/UNBzMCrRl7vK6qmfWgboWImE0mSEQ9AF8s1mmNNpkNLKUUybb5GTgmpnPq+MIIVd1FvwQNlhOCURY8qyt2Umn54+pyS7bC7HFpADpR+34S58XVQVwDUk0uNgRfK38+6k4B733SVDDu/ctocm/lyubSSJHP/DkCLh0aTLdpMrjOuZDJJuD+PVk593zHz+91GvfmPv0wIjvvPU5IYXkpdQS0iB4le3Q6Iy+CqrAGhHKAG9Qy/Sja8OhXgnvc8lcefXHHzWxbhhqnsJAjV4qHRdCbabgvvEGq4lLTiombG2Ty5fdlTMl5//RlK4aMRV1Flx6RMNCG+4YMsR9010A7kAPD0rgNzh0DcIRo85dcp8TC8b3oqJ5xceet7FmGGqeyk0uKh0XQ+2u6hxZW0k4SYHlZx89u2q3jYddST9+RbhGD0M89K6gpQ5smHt9+ZWY66a6BXuf3g7XcmqMsPUIP2ufdZ+fklBMQMvuQqGXZh5dT3U+LhJBWhXA8IajSdmPZOhKSciFPz2CmGtXPN0zK+67pzowpzTppGlHSUSDQgtkLPiewLvdLtA9/gC8E8OQA1yNmLHlH/RwioO/f/jIJ+l1fe+r5NXV4j7Ty0eGg0XYCO0lkiEXY2PzzFcJq3PCliO29QSiH3xB8SJSzlNNUguvyFLEfdedGr3V7wDL0Crvy+IISQN97/lZpECJi3cAYLlNxYNW2OzXyhVMFcp600mi7FHiJiupQTrnc2P3qSIWL194vItm8CIPnn/VUpJ4FEzSLElj2f3aA7KXrF6wDXgK8jdOLPgehG7Hj2QgJAsUDZ35g7dEfl1A8cHixkWjw0mq7LHiLicim7oVZsfvRkLu3or0Tzlp8CoJX37JSozMf2P54H68s3sht0J0Sveu3wD7sUkWX/zPwvB+CwYOXdhPHfVE2b4xh55ek5Dy0eGk1Xpo2ICJtQj1tZO9apzY9+jSrC7hCNGx5Aeg0AgMDwKxH+4rksRtz50FuZtCI4/g6El84EABDDy0GUw/MHXqaSTQ9X3PBv5S7rT2R894Q5oMVDo+mqtN3JlyllWcTIK1TuyimkecmMc1lu30/hJFYS7uJKJKW1YxlCE+5EsmZBNsPuVGgBSROc8gM0L3wEUDaov4RTd9BxlY050d656t9lVzwD36ATVGZvKy0eGk33oL2IyKRFXSVVwsgdSJuXzLjc2/trb0srtolwN1dOXDoNX8I99i44NXOyGXanQQtIGidaBwDgwVJGfcXCN+CcgbEV/3q/6Nw/u3LGXy5EJMG0eGg03Y/W13JmA0Zvr2EO4SHWtPDBS3KOv+2fIraznrmCjDBTqchGiPC2LEbcedACglS7LnWHWSxUFgAAIABJREFUwDy5lOcPlnmn/DJv56vT3s8/6YclBad/13HCCZ7Zkh36LoIaTbejzbVNKKRlM/+AiY4Ti3kbPrzvjIo71zzpNHyVgJKUefOVWTAI9s7V2Q476/T4ldA95GJ4ysbAbtpMSm56SH15OwGYa25w1DWTy67+uy2ilgFC9ZbsGk0PoM1NqaAI8xp27dM3Gs1fPP8OnPjp45YprLr5m4T6i1Ry6xdIrPznfl+zO9OjV8NMV0XVPdux6dfFFICk7twZrvKxN1ZNe9tWtjCUkooQqsVDo+kh7BYRCUIYIZzamx4+2Uhu+2KGjNffDICW37VObvnfPgiMvBrhz57JdshZo8euiMGJ30fzoj8CjgDSrXo0WHE7M733V02f7zBfLlO2hcw9zLV4aDQ9hxYRkQLUMOGE68TGBydwpcQ3RePG+5FeM4jph3fM7YjOvy/bIWeFHlsDEbEdUFKAenI5TL/jKhl5soxsf7782pfgKu4DZSVpZosSLR4aTc+iJWVNKZRjEx4MwlU6njQvmXGOWXH8h9Kx1jF3LqfcLRHeBJFuwulp9EgBSRXNA2DuXMYCZSIw/LLq6BfPv1d8/l89wZFnCxHVHVcajQZApr3Xsqi7rLcgRh5tXvzoeXlf+8k/KNBEXAFq5PZWvHAw7LoV2Y71mMOzHcCxxhx0EVx9T4W19TOSd9JPxHl/qGIPMNeLuZO+lZs76XrHCSd4WjwAaPHQaHoqaReSmlinXDmRJMs7captbfs8f9fbP34GInlSQilZcuJPEJh4N4gEoit71saLPWp1DEz+LmIf/xEDn1FYcSVJF81znvBUn3BD5a2v2SLhGAB0x5VGo2mhdWcWIYQQzuzNfz/HSNQs/J2M1/8AqUyOIG4fvGPuQPSjnlMP6VErJPOVQiXqQLiXSyvq0FDlDZQZT1TfvtChnhymHF0012g0e9JBUV1tengyBdj5dtOG15knjxNKHObKQXLH8myHe8zoMTUQ39BLwQKloN48Rr0Fwt3/9MHWliWvlV72FHdXDoFMJClhumiu0Wj2pG1R3SI8FJJGTl/a9MnMc0KT7/wHIaSRevIoz+ujeMHAHlMP6RG3tPUNvhyhE38GHqom/R6YK5Kb5yOy9Omncyd9xx0YdqqT2uNq9+66Go1G0xFKKUKYoUQ0wYIjz3Fyxn8jp2nOH56OrX4DsbVvSZ7TB8V3voDAyKuzHeoxoQcsmJeBhT6C01gDQggDIKgn9y/u8nHfqpw225ZJ2wCIrntoNJr90rYeAkI4tzc9dJKR3LH8PhmrvxuZeoinCCp+EoDuXVTv9g7EN8iCkdsbRn4/DsMreMHgi6jp/1bJJX8XEMjkrLR4aDSa/dJ6rVBSKgC85NIZkjDXD8zi4ecSMyiM/P7cVTQYvkFWtsM96nTrGoh/yBXw9T8XTmQ7dZePE4ER1xVFl//fm8Vff8DrGzBRpe7toeseGo3mwGlTD7EtYhQUSuYqos2fPnVqydWv/J26gjFIi/j6nwvC3LDqum9RvRuvmpeBBudhzJNbsPjCVMsu4Z7nAiOuvKL82sdtJ5I09C1pNRrNoZCZEwOgoARhPpe95clrjMiKV59VduRqAHTkE0p+fkc+1KBLgSWPZDHao0e3XTV9g86HiNfDCW/jTuNmh4cqryTMeLb69kWCugNUCRt6k0SNRnOotNl0kRkQsV1y0wPjmAK7ymne9BwPVnAeKneYOwfRla9mO9yjQrdMYfmHXgn/wHTqqnSMCIy+oSi64sXXii98yOepHpFq2dXzHhqN5jDYXQ9J75cVCoB5Skl46ZMnFl/+zOPMFYpCChIceS2I6YG19dNsh3zE6Z6rpzcXY2fswpIrUqkrcPdzwVHXXlF29aO2aJW60uKh0WgOhw5TWU9db0RW/OsfyopeC4CesFnJjwaUQMa3ZzHSo0O3W0G9gy+EcmKwd61nTsMGwYOVl1DD/c+q2xcIavqpkjp1pdFojhx7pLLijXLTgxOYgrrYaa59yQhWcJ7TyyGGF7GV/8p2uEeUbtXGG5z4fZS++BKoO5/4hl4uSq97PUfE6v5WcOavwQN+opwk0eKh0WiOJG1SWXaSGDk5KDzjfyCaa/9cOX1R0D/+Nof5i0joly8iOOE72Q73iNKtVlEjpwx2Yy2QGeYxAw/6B58/vfz6f9giqlNXGo3m6LBHKsvrsmueuNyIrp39sEo2T0d6TaLeXMhYQ/YCPcJ0m5XUO+IaGC4vEls/YyJaJ6i/eIJoqvm4avo8ZeZWQTo6daU5QNKLgSIEZPfCAECh9SXT5nF9TvV4dm+4KEENA1b9emx6aBJhuX1OktHtH1J3DjNLhggpBGLd5Da43SaFFV/zKnhuPyRrFgqnYT3srZ/+KW/SnXCXVAlpJXTqSrN/lAKUQkYyiBQAFBShUJRDMSP133RvRurxlJBknqvpubQeMJRWgrjLesvcid+CVbv4z3b9l7h2y2LB/GVIfvZstkM9YnSL1dQ7+ELIyDbYjZu4CNc61F9yh6ug/9+qpn/oSNvhaPXRUQuIZg/aOw4loSgDDAZIgFhxwI6C2GEoMwRwL5TLDQAgtgMoCRCqHYmmTSqLEEJAmL3xgfGG07z5bhHedh/z5HMzp59DcssRW9H1C+pd/iwPnHQPXNf+D2J/vIiAu5WRU1UeXvTIsrJrX87xDThJyoRFCWW69qHZk30JRzIJVjsHrOZd0LqlIMkGQDkANaHc+ZBFx0FUngZRMgkwKIilhUSTYncqywHzuFR4xVu09umLwqHjvz3UDm/ZrKwIybvzXyr61A/QMO932Q73sOjyZ7e7bCwStUuATOHc8M4IjrrmxrKrHmmzXYkWD00L+xQOC3zjG+CrngTdtQyQDsBcAGEpMVAKUAIQCYC5IArHwhl8E0TFaQAnbRxJy88DWkh6GK1EhDCfy679x81G+IvnZyg7ejMyBfWcPpCN67Id6mHRpc/q4Ljb4MqtRnjVa9SJbJPUkzdexnYuqJr+keLBEihdONe0pvVi3qFw/Bt81UzQ+s8BwqC4JyUESgJoXd8gLd8nTgwAIIrHwxl0I0TlaQAjOrXVw0kLCJSSinIDdkMNNj48kfBA+RQR3TmXefMorT5VGnYTmhc9mO1wD5kuvZVJsnYxghO/jcY590HGGyDiu57InfydPqGR5wgZTzBC9U67GrR1HEBaOChgGoDjgK97DeaCn4KvfhIksRPK9AM0UzrrqDiuQDKCQl0ANUDD68E3/ht0+wKAhyBz+gIGB5ESREmAEC0kPYh0QT31AdaxiJmfJ5xwI40se76/jNfPEOFahIZfjcYPfp7tUA+LLnsWe0ddD6kSEFuXpSbOA6UXEcP7r+rbFwjCXVRJCQBaPHoy+3AcJGmBbfw3+OonQXd+lnIchjf9nD1Fo/V5pNoLCiFINTQqECcKgEAUH592JKdqR9KDSZ8rilAGaUXlxvvHMiVxqQhvfZHnVDCzdJQglCPy6VPZDvWQ6LJtvLFPn4TpK8e4xcvF96wodZprf5U76dtgfg+UsLVw9GQy7biZc0AKKEKgXCaIEuBrX4Hrratgzvsv0PplUGYgla5SMv0vtbgTQlr+pV624+9DKRCVbvnlfijuBds+H64PboPr7evANrwDRRmUaaaer9t/exSEEChhER70I3finXCaN/18udVMztixQhiBsi4rHkAXdSDe0TeCWruQ2PIpdxo3OdRffLuZ3+/+qulzHeXsbtvVItLD2EdxnFh2ynGsehJ056f7dByZ80ZKCccRkEJAphd6QlPCwRgD4xy0vbikf3+HjmTwTRAVpwJMt//2JFpcSKqt19n44PHcadj4DRHd/gjLqWakYoIwDA/iS5/IcqQHT5esgdjbPoVZMZ54B54rc6Z8Nyfy6TPPFZ37vwF36UAo2wahDNAC0nNoV+MgrWocRAjwdW+kahyrZoLE69rWONoJByEEQghYloVk0oLjOJBSQikFpRSkVC3C4tgOlFKglIJSmvqkmXktqJSatK6RbHgDdMciwAhBhvqlhE3XSHoEqVvgOoR5OKiZR8LLnh/R9z7rYZ4/3FL1axD7ZEa2QzwkutxZ6htzM8SWhbAaNjBpRQRxhX7m7X3ivZW3vGqLuGWAUO0+egodOA5QBmUwwLLBN85KO46lB+Q4hJCwbRuO47RJV+391+/+GcPgMAwDlNK2j2EvjqRkYqpGUnGKdiQ9gIwLARShLsPZ/OjZPF6z8C4V3/UnHiznrrLjHeXJQ2zpY9kO9aDocmfnP5XCDSOvISxQpnhun/yGt3+4svzalwt9A0+WMmERfaOoHsB+hINtfBN81UywDoSDQLWqraeFQ0rY1t6Fo/X39vf4wQkJhSiZoIWkB7B7LkSAeUwVXjaL1j53RU3xdbOHWrWfNCe3LiHRpTO6XDGsS52V3tG34KJPHsMzpp8pO5pyH72m3Ft562uOiFtcu49uzh7CIQDK2wiHsWpmh46DtN7j6gAcR6aPf/evVm0EpDUdFdkNw4BhcC0kmhbauRB786NnGvGaxT9U8V2/Zd587ioa4CBvOGKfdJ37p3e5s9E38npiFA5SZtHQUN2L160qu/qfJYEhp0sRtwihjLS/8DXdgH1NjmeEY/WToHWfpBZcw7dPxyGlhLUXx7Gv86cjUWkhM2OCQ3QkdhQgNJXaGnwjRPnJewiJnmzv2uzhQr54ndY+d1Vt8fVvDkluWdJkbV1Kop8+0aVcSJc5C93HTYWoeQuyOcxEbJcg7ty7vdUTf1NxyxuOTFgMhALafXQv9tVVZQuwTbPBV87YLRzch46G/w5EOKDUPhfljhwISS/oqtXje09tHaAjOQAh0Y6k69LGhZiGs+nhU3li62c/VPH631JvLnswukvcOW4aEosfzXaoB0SXOvu8o64nZskI5SoaHtrxf5euKLvq+bLA0LOkiFs0XfvQ7qM7sK8ahy3AN80GX/kEaN2SPRzH3oTDtmzYHTkOKJCDuAza10NaO5fMP0JIi1C0f87BO5JJaSH5mhaSbkCbjRa9LtW89GW69YXrNlfdvXVwZPXr0fja2Yh1oXbeLnHWhSbeiaavXQv+l3O4E61ziCv0X56qCb+vnPqmLZO2ARBd++gO7LM47oBtfhvGqidAdyxu5TgAQO5dOGwbtn1wqaoDC1W1cSAHLyQH6UhKJ6VqJFpIujytXAioYYhNj5zCE9u++I6K7fwz9xcz5+SfieD2ZWhe+EC2Q90vXeZs8428AaHTf42c8aWuldcGlpdeOrNvcMzFUsSSRO951bVRSrUsnB05DrZpdqqraseS1LzEAQjHodQ4DiXuzGt39HukklBSgVICSlmHzzs0IbkJovwkLSRdlDY79XpdsmnRc3Tbv279asq6yOCambDrXrwR4aUzsx3mAdH5z7Lx9wALfw2jYCCzd64WzF96o5HXZ0bV9LmOEk7mqtTi0QXpWDgolMHTwvEW+KonjphwtP//IyokBCCKINPr1UZIpGg1cHikhGRy2pHsKSS62N75aTWdDhAmNj14PLebttwgwlueNPIHsBFPrBbLf3sPEnN/k+1Q90mnn0T3e10wKichsf4/qStCikfyv/ajcm+fMUpZNtVT512PjHBkOpeIkgAlUKYBSAW2YTZcC/4fjBV/B41tgzL8ADWREg7Z8jqZorWUEslkanJcCNHmMZUujrff06p9DeNwIISAoK14tBYHSlOLuhQSQoo2e2llflYIkRY+pB3LXibbmQugHLTpS/CNb4DWLQXMXMhg75bJdujJ9q6DEoR5uZKWTSMrX66GdB6R8XrVvHwd2LbFsJq3ZDvCfdLpz6qKgfnYmRjE7Pq1grpyTifcfKvqtgWSGm6id9ztYnRU4yBpx+FIsM1vga+cCVa3CMCBOY69Fsc7aLnNNFodSfHo+DD3ntqSUrSIHGP80GskhAJKgdgRgPLdjqTsxLQjsdOdZTq11Vlps1NvMiI33n8cUyDnyETDLCOnF0vWLBCd/f3q1A4kMOYWNCT9sNf9hygrqqQd/W3O+GlDAsNPFzJpUd2620VoLRzA7r2fTANQANv4FsyF/w/GisdAY1uh+G7HQfbmOKy9O472biOTPjJNE5RSCCGOardeG/eDtkJCKQVjDICCEA6ElAfgSChoehPHFkeSTpuBuwHCQRvXphzJzqWAmQcZ6g1wBiKF3mursyMdwoNe6TRspdG1swIq2fycCG8h7ucWKU+vE2FtXZrtCPdKpz6Len9nOXbM+iEV8V2ScM9ge9fazyunvs/NvF5Kpu422Knj7/Hs13G8nS6OL0R7x9HR5LiUEpZtt2xi2Pqxjh2HAmMMLpcLnHFYtgXbtiDlsWv3Vq0X7FYuAi1CkdqskRByAI7EAKXtajrYmyM5IV0jmQJQ7Ug6M5m7Flo7vyKbHj3JcRUPHyHt2ErmCtHCM/9HbvjL8GyHuFc6rQMJTP4u7O3L0PzJ49Rp2qyc5i3f9w08e0ru5JttmUhq99GZ2a/jeHu344jWHpDjsA7QcWR2zjUMA36/H16vF0IIxONx2Lbd8twD2SzxSNASW2s30uoxShkoZZAyJSZKHSlHsgZ84+ugdZ9pR9KJSZ2HBEo4MPILncTGRUZ07ZsxZ9dXb9v1ayhxBZSnYhISmz/Kdqgd0qnPGk//8+CunARv39N9tTNPXlV29QsV6cFBQijr1LH3SPbpOBRYzTupOY7tC1M/x71InYJ7dxx7m+Noj0zVw2CaJnx+HwxuIBGPIxqLtaSsjkYH1sGyv/pIpoMsk+qihLVcpYdeIzFSjmTwjRBlJ2hH0glRUijmMVXz56/Trc9dWVM2bd6g2NrZ0cSGD5GomQsVa8p2iB3Sac+WXj9ZjS0PX8TsutWCBYqv56GKmdW3zXegJEtfLNp9dBbap2k6EA6+6gmw7QsBqHSq6vCFo/XAnsvlgs/ng2EYSCTiCIejEMLpNMLRnr0JSabtVwjRVkgOtf23vZCUTUnNkZRN0kLSSWjT0guIjfeP4050xw0iuvNJM78/q77pE7H2t2Z2g9wLnTKFFTxuGhoXPQ+r5mMACkpYf849fnov/+ApSiZsinTto7MsBj2WdqkqtE5VgYBtehfmwp/BWP4IaLQmJRzUBUAddKqq7a/dLRwejwc5OTnw+X2wbRuNjY2IxeIA1O5W2HZprs7AHik4oGWiffe8CIGUIp2Wk22e12FqixFQ0q79t01qi4E2rgbf8HrqPvBmPmSol05tdQ4IlCDcZ0i7cRuNrp3tg7CeFtEdSGyfD1f/M2BtWZztGPegU54dZde8goaFD6aL5+7jnPovF1VN/0gZedVQjg2SauzPdpg9l32lqgTAat4FX/kE2Pb5OBqOgzEGj8cNn88Pzjni8TjC4TBs2+60jmNf7DutJSEcB7JFQDKOhLY5zsxzDNOAwQ/WkdwIUTZZO5Iss7uY/iXZ9PAU4SoZNULakRXUFaLBE/9LbnvslGyHuAc82wHswcS7kKhZgPjaN1NnLHNdHRh6EVwl1Y6IWhyEpj6pZTfKnkk74SBSpBYa00wJx8b3UqmqbfMByHbCITP75LYTDge2be9TODL1DW5weL0+eL1eMEoRjyfQ0NAAy7J2D+wBndJx7IuOhKB12y8xDAiZuje7UhKOI0EJBeWsxXFknm8lLdi2DYN3kNpSCkQJKEKgzACgFFjNe2C1czoUEiL1FinHikwxXdoWXKX9bE/1ZCOyZtY1sGM/BggxK8dnO8QO6XQprGBuFRJ1q5B70j2q/PrX3A0f3nd//qn35riKBhLlCEIo1bWPY82+uqpAwTa/l0pVLXsINLIpVRzfb6rKRjKZ3GeqSkoJBQXTNBEMBpETyoHL5UIykUBjYyMikQiEEK2mthWI6jrC0Z4901rpYyKZyfTUdiZKKSik7s0upWrz3AOebN9naqtAp7aOMYRkJlwloQYnSjESXfVqycnh5IPSmSqa5twHT98zYG39JNuhtqHTnQXFk7+Pps3zmFX/pSDcfTH3Fb5Yddt8QQihunh+jNlfqmrLf1Kpqm0fY0/HceipqsxchGma8Pl88Hg8AIBYLIZoNNriONrPfXSn82JfaS0hRLrlt+10fmaOpMPU1kHNkRgQZSemHYkuth8rdhfTKZSw1aaHJlBhx05XduIds6A/Cwy9ROx49fZsh9mGTuVAvFN+BBnZhujq14myo0pZkR+Hxt4wIjjidCkTNtPF82PE/hxHzfswF94LY9mDB+E49l8cz6Sq3G43QqEQgsEgDMNALBZDQ0MDotEopJR7LJJdKV11oHQ059I6rZXpymotIilHIgHsfY4ECiAH5Ug+18X2YwuBcsADLpHc8RWLrZkdVYldbzgN66lROEglciYB2z/OdowtdCoBcbm9sBONxCgeorwDzi6y69f+peC0X7p5oJwoIaHTV0eZAxGORffC+OIB0PDG1D3HD1M4MoVxAPC4PQjlpISDc45YLIbGxkZEo9GWltbuLhzt2dvQ4+4hxN1prd1twPsWEnFIqS0tJEebNkOnlBFQN4mseKmi4IKHH2a+omRy62fweymS277IdqgtdKoiuukvhL19NUtuWexYW5aebRYMzHFXjBfKFhSEdrs0Radhf8XxTR+ki+PzAClTdwA8zOJ46z2q3G43fD4f3G43lFKIRWOIRCN7FMeR+T0dvF53Zr9FdmJACgEhRZvHHcfuMLUllYJlWXBsG4ZhgB9Qsf1dsNoPO0xt6WL7kUNl0oSWIJ6qycLI61u6693/dzacxAtGfj/mLu4vOtNIYadxIJ6JP4ZymhFfM0vBSUI58R8HR183NDDslJb0VU9aNI4J+3McWz6EufDnMJY9ANq8IZWqYodXHG8tHB6PB6FQCIFAAJQxxGNxNDU1IhKJQrYqjmeel5mX6KnsLa3VUZG99eO7HUnHxXahU1udhvT5npoJ8RsyuX0Nja2dHVdW+GWnaRNh+UNVMv/ETpPG6jQC4g2EkGzaSlhuH+Xue3q+aFz/l4LT/9vNA2VECQVC9caJR4wOhQMpx0EoWE1GOO4HbV5/xIXD6/UiJycEvz8ASilisRiaGhsRiUbbdFVlntcTUlUHQ/u0VpvaCEtd0u0F46gKiSsfMthLC8kRIp3GUqCMEOYjkRUvlwVPuOdhmIGEU/8l/AEXkts+z3aYADpRCsuV1wtWuI5a25cJUb/2bFfh4JC7Ymw6fXV079/QY+gwVUVSwiEBtnlOKlW1dS4gndSNnDgB1JFIVTF4valUlWmakFIiGo22dFUBJN0hRHbHqoVjr7RJa6U/CKSuEYCnBwlb7/Tb+ucdxwEhApQyMMbapLaSVmqOhHe0Rcr+UluDb4Qo1amtw6VtGmuiMPL7FUaWPnamchIvmAUDmJnbR2Q7xgydRkASSRuJmgWpj0d27HzPcbeAeaCcZoeAMr2QHA77FY654KtmdCwccm/Cse923NZT4263B36/D4ZpQjgOIpEIotFoy+R4+y3M0z3xx+RP09XJOAiF1m5EtdRGMi2/mZ9tLSQpgREt+22lUmBHoEaiheSwSL+PREkH3O9S3j4no2HO786DEi8kojuUWTw62yG20CnexeBxU5HY8gnAPTALh4Tiq1/5qvzGWfmeqtFSWjbR9/04RDqc4yBQhpESjtp54CszwmGnhINkHMehzXG03W7E07LBoRACsVgMsVhsjy1HMs/THxIOj9Z/w9ZfSylb3EjGrbR+DpB621OOhO9RtKeEpB3JQc6RDL4JonSiniM5RJQUirpMFVs/n9Y+dcH24IRv90lsnh8T4Rp4KieiaeGD2Q6xczgQHiwD3bmG2TvXiER4y2lGft98d+lIqWxBAJ2+Omj25zhq5qVSVbVzdgsHd+/HcRxYqooxBq/XC5/PC8Mw4TgOmpubEYvF0qmTjh2Hfn8Pn33VRlo6tYTT5r1t60hEy5xNR47ETjuSPYRkX46k/KRU11YrIdGOZP+0pLFsSdzlYyXPqS6OfPbUKcqOvW7k92dmQb9OkcbqFAKirCgSGz7IfOA9wz/kfDAvFU4kaYDo9NUBk0Xh4IzD6/XA6/OBcw7HcdDUlNoZtyPh0DWOo0NHDiTzNeMchNKWzRn39rNthIQykFbpq4MWks3vgG35QAvJQbI7jWUr7ncJT+V42jj//tMBvO40bYa3+oRshwigE3RhBSbfjfj6dxEcN11VTP+P2Tjvr3/NnXRnyFU8iChH6u6rA2GfXVUMbMs8mIt+CePzv4I2fZXqquJHpquKcw6/34+c3Bx4PB44QqA53IzmpmYkEok9BgBb/bKj/Vfp0eyzUystCK07stCqjtJSV1EKUsmWT8O0XdfWgd8hkYE2rALf8Bpo/ReAqwAyWK27tvYDyaSTOSciFiaxr97LO8eOPRCrPUs0LnwIxohr4Gyam90Ys/rbAbgLewGBPtRuWC+5v2SMaK5ZVP3NpZT58pVKFf/0/MfeOJAaR3vHsc8ah0rXOA7AcfDUzrg+nxeMMSSTSUSjUSQSiT06f1KzCXoH/myxt9pI6z21OhpWbP3/SDtI1jL9fph7bXXgSHSNpC0te2MxDie8nWz821jBc3qNdsJbvzBClcTl8qqmNbOyGmPWU1iuosGIbV9HRcN6KcNbT/ENPI/yUL4tkzZPaUfPPYH2SjZTVZzD50sJByUUiWQSjY0NSCSSbYbaWj8vJSbH5C+j6YC9uZHMfUUcx95dYG/1eJvao1KQIrWlfOYOiVSnto4qLWksYSsjp9h2V4w1Yus+OE3ZsS+Y28+M4kFOtmPMuoBITyXsnbMEACilprgrxoEaIDIuCGFGtsPrXBwN4XAc2NaBCIcBvz91Lw5CCOLxeMsMR0fCkUF/AOgctHcgmfc15R5MCOGkUlJoKzLpJ7Xp3ko5l91zJHsVEpODkv20/2oh2T9SEGoaxF0+DtGVrx8PSFjbPhfJ6inZjiy7KazghG8ivubN1PRzsNxn71i+qeKm2XnuilHTe+IpAAAgAElEQVRS2jbRDiTNEU9VSTi2A+sAHIdhGPD5UsIBALFYHLFYZvgPHYqGpnPTkRvJ1L4cx95ryqt9N+TuusqeQpJ5zYO7Q6IJUX6iTm21IiW8Mt3O+zGtffqiOt+wK6qtHcviIrwN7gHnIzzvt1mLL+vvgqfvadTasVwyX9EZhJmzq74xTxHKkL4HdM8WkKMkHLZtQx6AcPj9Pnj+P3tvHiVJdtf3fn73RkRm1t7V+zIz3bOPmJFGo9FoQyOBQEiyrAcGG44PzxLYGCyMn58XOPCMffz82Lw8MNhgjI0Rz9iAEWYRlkaaRZpVmtFII41m02zdM713dXctuUbEvff9ERGZkVmZVdW1ZGZ15/ec7solIu4vIu+93/tbb2kM51xzL44soqptIsFxZVep2n7oRSJZEcbMj5Ud23xN5iDvRiSqWbixs40RkawPTT+I0ri4Lsd+4x04UXebpVMPBXtvVar6sq2eenVg8g3UhDUNVOZeUGbplDVLp946fdePocf92FQaHqKvXPLYAlPVpRHHBKVSCWstS0tLVKtVjDG9zVQj8th2WEnDyJu0smOdc60qyB3H5/uZtWGqkbTvWRI2QqIw6k4ky0xbNjVtPdiVSK4k01beD6LHS1Hx0J3+4pO/806cecgUp1TpmjdduQTi7vxbxF/+T0moVWHq3YW934IICsdlmnyeRSO55vuk+pOjFQBJEoKLkOxW2n/iMMawsLBArVZrrkTbicMxBMrrCJuA3g52DxG1okmrTSsh3+9MWiLFoFKHu9BOJEHgN2t2ZdddmUgyH8nbrzgiERGctSIaKey+BbT/dmJDNPdNE1/3vsHKNqiGJ7/1p6k/90eIaLzpQxON0187dvBjn54tXfWWy8z/0U4aCovgiJ2HQRNbMIBxNCnEWfAVlIogFvTJR5NaVVtkqpqcnKBQKBHHEZVKmVqtvmx1mZ1zefwmI3RivSatzmt085FIGv6rdfsuiiJC0K3WFp2mLYtEldS0tZxILnfTVpsf5JVH1cnf+yvnxm/7/mvCM0/XTPks0Y1/GR7+xYHINjANRF14Bj1zjYouvGIJy29XpdnZYPfNzhknl8fqNguFFJRYFJbI+VSsR+xgSht2enPsL5xg1j/HTv8cHg0UlkJBc7xxmCees8Tf+H28U1/YdI0j22+8WCwSRhEXL16g0egeipstMUfkcfliNZNWHMdtRRmT7yA/VjvPa763lthajDV4qUaSHdcIQ8LoUkxbn+uI2rpCNBJRuBgp7L0NCcZ311//0p2mfOYhf8cRNVU7a88PSKyBEYi/83qqz39amYuvWLN08o7JN3w3emw83v75Hy3iEHFoiQldgaqBHX6dd04/wrtnHuCOqS9xfel5xnQVRYRSNSjG4Io8+cJe/uODu+FrZTzTAH8St0HiyLKOgyBgYmKCQqFAGIacP3++LaKq63Pfrj/FCJeMXiatxNwkafZ578is7Lz0y2ZuCSREElmLUq1ckuwaYSMN//XWUka+nUiiW34Iu+9tly2R5Mua6PHJqLj/zX7l5fvvclH1IV2aUd7Uu+zqV9kaDIxAIgPRueeSG4/rtwW7b0YF2z3/o13rcAgLcYFDxTl+9MDv8lf2/Heun3wZdBVihzMB4JCCAzvLA9/Yyyfun+Sxr0fYsMZ4ycfpwqYRx+TEBEGhQCNscOFConFAeyjuKKJqhM48key1UhrfV20mrZY20m3hkUsmXOZs70IktjMhcY1EcvILmAOXP5Fk+SDB7pspP/PJGwHCU0/Z6nXfOTCRBkYgjRNPsOtDv2pn3/MTwcs/d+hbi4fehgtRiHLOuW2ogbTIQ4shtAEW+NGDv8nHD/0iu8dPgNqNicaJah4FVUOKFswkDzy7m9+9f4LHno4x4SITJYeMKYwDsWZDxFEoFJiYmMD3fRqNxjKNoyl9ZnYYkccIdEk8zL1OTFpRGpnHyiSSv1a6OFmVSDoTEkdEkjxjUc7FqOLBO9FTB9971+eO+8d/5yvR+fv+yeDkGkSj42//SaKj90o4903nTey72tna84f/7ldKemLPNq1/lSePmKotsNOf519e96N8x+4/BL2fmGlcOIfnqkjJsVg/yD3P7ONPH3Z8+ZkGNqoxXgQRhXUtZyKskziKBSbGJ/B9j3q9TrncI4dj5BgfYRV0mrSy/tI11HctfalXHokkW/JqrYB2U9qlO9vfS3TLx9qIZDs725P7dU48n3j+hBz79bvKThevs5VzZ/0dhyW66cOOh36h73INRAMpLj2NHduhdHHSqMLYu72Ja0p6bJfFmjQacHv8qHlkmkfFFDhSeo3fvuV7uG7yK0T6jShbhsYJ/MBimea/PXELv3PvOK+8dAbPlhkrCuIlxGHtxoijWCwyPj6B1pp6vcb8wgJmtA/HCBtAN5MWJKG+iGByfpE1kUgPH4l1FhtbjFHNPJLsmpmzvSuRdNVIPos++XnMgeVEsh01kuQ5IBjr9MRe689eO2HDyt3G1P/Im9yrZqpnzLkByDUQAgl23sjC1/+nmPIpTPnU1cWr/haqpIyphB6y3UpjuKbPo2ED9hfO8V9u+W6unfwaof82/Pgkcf0C/pji7PlxfvK/H+YLX60wJieYLmhAb5g4RIRSscj4xARKKWrVKtVarWvyX7b4GxHHCJeCZSatlFC00oiXOddtNtEBayeSTtOWc5Y4toi0TFvrJ5J7LisicTZGlwIT7LxOLX71967DxZjClOir7hqIPAMhkEqkiOdfy3bU+hZ/5hpEIzgroga+RcklQ8SlKYHwr2/4Ea6d/Cph8E786LWEPMY9vvmqz4//5m5eObXE7LjFUkhIYZ15HE3iSLeNFRGq1WrP5L9RVdwRNgOdWkbiXFf4vt+RL7J2k1bmd1sW/utcanZNEhJ1FyJJijb6qLzDvo1IppYTyc0fw+7ffkTSTCj0EW/mGnDxtQDh3PO2HIUDkWkgy30z9wIHf/Av3O2fcIE3dejtwd434KKmA30QIq0TifahMSzGHj984Nd59+yfEgbvwIvPYOrn8cd8Xjrq8zd/bS+vnVPMTEDsNNYmG/VkznGRdCOnRkitWqMRhtguZqbsvFKpxOzsLGPj41SrVebm5qhUKs0BnTk+M4w0jhE2C91MWiKC5/lorbuGAa/1upB6FHN93zmHiWOiKFyWixKGIdVKjTAMsTZ3TnYNm6xTXTCFUz769Xso3v8xCg/8HdTJL+G0n1R6IHesSKKqD9lclEazORejgt03o6cOfet7Ljj/yD8PrZs/OhCZBjKryPRV4hZOOMZ27lA2Onb1x5+YLOy+3tk4YlvkgLhWrSqFJbQ++wpn+NRtdzI7PYZhDCrPo/0i1Rr89X+zj2dfD5gsWWIjZE739WgcxWKR0lgJHFSr1bbkv1b8PaPcjRG2HL2c61nSoaSJhusN1Ogs3Jhvr9O0lXyu8AMP31ttYyubFG3Uha6mrWF1tmeOdOX7rn7yG+r133rPPN7U1bZ+YUkXpzBLx/suU99NWFN3/D2ihWclRJye2PcmF5YnvakDOJuuxYfgh+qJHHFkRQ5FOWoK/vd9v87sxFlC/S788pcxUoDA8Ot/PMtTrxbYNWmIkl1P1m2qKpVKOOeolCttORzLkrqG+BGOcPmgl3Pd8zxEhDiOyPr7ekgk4Z/uGfKZaaudSGxaayvG971VNrbqYtoach9J5kh3BvyZa1DFmWlvbNdtsbKP+rPXKXvr37CNx36+rzL13YS18OS/xUVVZesL2OrcrYXdN6MLY7GzZvWTB4XMV5F2nkTVdRAEhFLgqosP8D0zvwmF29Dhcaw1eAXHy0cDfv/BSabHLLFdu6nKOddmqpqZmSEIAsrlMhcvXqTRaLTtbd3q2yPmGKG/6JZM6JxDa43n+c33l2rO6tZO/lrZ9eLUtBW3mbZsYtrKxtdaTVv3bQ/TlrMxqjgZF/a8QUxj4U02quJsLFNR/6vy9l0DEQEpPI1rLBE3Fma9mz+MKuLsooFhc6B30TiQVnXc4NQjNL78//FdN/w5+3aFxG4SFb6IFR+05Q8fnuBCWbFjwmKsJKUcVtA4Whm/imKxSKFQwFpLuVwmiiKgR/LfiDdGGDDyJNKM0NK6qYlcUphvD2T+wsy0lScVE8fYZc522yojv+pWu9tII3EGXfScN3M1lRc+NQsQXXhR1LV39l2UvhPI9Nt+nIUvLRkA0YU3+rPXAlk16CGZCVchDn38Ubznfwf/1IMUaoa3/+UQSgehMg82xPMLLFzQfO5r44wVwBhHGEZrJo4gCDDGUC6Xm8l/oxyOEYYd3UhEKYXn+ZtCIpL/uxqRpNV/M8JpZrYH/nIfySpEEt/yMcyQEEkSieUEQfwdhwEOA5il07ba6P8CvO8mLFOZ48hPnXJv/5IL9OT+N/g7DuNiFCKDj8DqYapyQYDTPvr4oxTu/9sU7v9hvBP3EVFgdnaMO69vgJtF4vNYPAgsX/pmieNzGmcaVCorm6pEhGKpxESax1EulymXy+m+062IKteFfEYYYZiQJ4jsdRLmGywjmA23lTTYDIVvi9oyqWkrjsG28lPCRki1WiVsrN20VbjvYxQ+/3H0yccHbtpKIrGUcwbxZ67Bm77qrd/vnL71d5x15RNb3n4n+q6BNE49xclPfJCz//Ogdibc5c9cgzOk/vMBTYxr1Dj0yQebZdVFFYkbjgM76uyc8XFWI7aKQwGOR57RzC/UmBmPsW55+ZBsYBUKBXzfxxhDpVLpkfyXOcdHxLEq0gXAdnxSDodcBrsZtEdGtUjD9wOiKNwUc1ZHg80Nq+hYoBkTY42gtEo3yeqSR7IW09Zrn0GfeABz8NuSMvL77mppJM4C/dRIRDICcdYc+MxdP1II516smuqFLWyzO/pOIE6UNE4/5RoLJ2aVYtybPoSzDGbUrIM4mvtxOEsUKw7vCfEKHsYpxEVoLZia8PVXBV9boL1D54nD05o4JY5lyX+58MUrSePY8KSyCnkMWstd6d5kA8Ng2Gqa9coVSUgkopW1vnlyt1+nw7RlTFq4MUck0FG0cR1Esv8ukP4RSSK3wxnEm7kKF1VLC0/+3hi2VlVTV7VyBPqEvhOIP3O1uLju9MSeN4mNx1Qw7voe1bAR4kjLqosC44TdUwYCH4dGnEG0R7ksHDur8T3IKpRkAyUIArTWGGOodskav5y1jbVMFt2+38xJf8UJvNt3yz7qdn6aeJP1qx7yZhNq1++SA9Y8mXYet9bz+kk0vUnEJ4ojnN18Esm1DiwP/80TiVK6Oe42TCR91UiSvqaK03hTBybEH39DXD7zYLDrRqktvn75EsjYO38Ke/whZRsLVrR3uLD7ZsQvGWfi/nh/NoE48mXVcZaLSxaMQzybXF7D2XmhWheybd2dS7aO1UpjrKFeqzX9IZ3EMUyryEvFahNBpxlvrcifl71uPqvmoj2LRmtFpSXH5qPUktf5a6QpZk1b+mah7f5cYp5KXzb/y0ij9cd1+etS83qLfFzH9VfLG+32/FaSezP7YE8S8fwt00SWtU8XZ7sxqY9Rp7kk24xInEX5Y8abvkrHC8dvIG48iIkkuOunCB//pc1pYw3oK4E4f5x46TSudpG4dnFm7PDdqABnqklUw9Y1vLnEkSUA1muGc/MWYpBCAYsCccxXFJGhbSKzzhI1oqZI25k4eg32ts9yk2Y3dBJB+z/ankn+u57tXaL8WQBD5oDtJLSuBLdWgsnL1WFSa95Tdlja7/NJc9J5jU7ZU1lc2z/a3jfrrK2g9XTK1Pm62eYGfTMraiJb4RPpbD8RAujQSHBYa7B2Y0QiAyASZw26pK0e36NrRx/c7aIacWlGov07N3TdS0V/CSQOiS++kr2d0OO7EQ9wVraEQLaIOJKcjKQjLtUUNo4BhxMNYqg1wFjB05kYDhMnERvS0ZGHmjgcOFm+Q+FaNYnMFKfSf5JGlCkly0hhPc9hMxLTOq+Xn3jXjU3SZDon9m6Emk14ve7HAc5mRGKxNkcy6RYAq/2GvXwzlzLh9yKRzQrxXSuaGkm282ba1NqIpHf1X/pNJM6K+KDHZnFRbQwgmnsBrlnayOO5ZPSVQAKzSB2SHBB//CZv6gBYBJHN3YJwC4kjy+NQStAKFquKODYESmNFg4spBqBVUmgxbzJJRBte4lg2eIW2Sqnd0JzIUoJI/uZer5EgNtvP0W0i6vysl0zZ5GCbE7BtW913trXZyGsYbTKtgjaCSV60EY2IblvAZH8TMnE4azHWYp3Nkc7ydnv/pisb07qRyEp5IquZ5taLnJ7XJhvkiUS17ZJ4KUSy1aat9Nk4HOJNHQTkcNpr7FRQYXHdT+bS0VcCsbVz3P5Z5977nahfm7nqsDextxmBtSkrjz4QR8v/4VAiLFSF2EKg/MQcYWH3tCXwoREu7xfDRBy9JtSVyCIroaJU6/VaCPFSfR4b7Q+9yGMt5pxMc2o65nIVZp21CbGkK/i8H6Nbu93QKcsy01zy4arX6bxmnhR6oZcmo7VCPI2fOzbZctY1t561OSLtdt1l071zy+5jRRKJ+qeJtERsby8/9lvb7XrdNZLAQ0mv/Ui2jkhc+lydQbyJvejJ/YfN0kl+1zn743f+rS15Tr3QVwIx5Tle+1e/xCf//MMFQe3SpdmUQNiYAtJH4mhbHQlUG4owjBnDIqLBwvSYw9NQH2zEaFfkB2aLDDv8FekKNiOIZHc4hYhq2oKXXTe5+Krtr3Vy2OzJo9eqORuM0sMXsux8rZvZt3lTUP7vWu9j3ffolue6rJW4VvOJdPqjtFZ4nm67Riep9LzvHiTek0R8L3Ws949Euo0FpH0usDZshv8uI5Ig9ZHkF19rIZINhP8mz0YEh6jSDlB6/82/5Qr/+G/8WcOUT2/Jc+qF/hLI0gnKT/8Bjdce1c5G42psluZMvF6kgyn70WBriaN9xZ74OpZqMCOAKoBZohjAWGBZrGi8tI1BohtpdA74RKNI7L8ZYeSP77zeSlht8A+TFtaUpWNCzmsHK626836IVQklbaObSfMShV7dtJOt/nNawFq0xNXuNTNN+r7Xdp41FmMNxvQmlGWaVtZPyEhE43luffusbxaaBoZuGklCJFm9LUgy29uc7Wsiks9jDr53w0TiLOixnWDN9Kn/8g+98NzzDVs5s2WPphv6SiDhxaMQVQlPfxVVnPGSm9+AmTNbibmECpzfH+LIIAKxgXIdUALig0u0j+lxx8kLkEWJ9hurkUY28XmeTgeE6nqPPckit2rv/myGhyTWg16mPYHmgqXXJNlGKKnJq7lS73J8hk2dLHPEuBK6aqRdjmkSi7VkdbNb95sQS+AFzeOttUmobGyaJj86zmtrM40i09rDOdL9RAbXh3qN/6bWpQxaJWMHt9lE0rKmdDMDpgKCQ/TYTlzc8Bce/VWBGDW2q2/PCPrtRN99i4RzLzo9uX8v9QtFVZhKrR7r6Cg50wOA83zUycfxn/0t9MmHtpQ4MggQW6FSs+DqOFXEOYenHZMlh7X954+sv3UjjbxJyvNa6njr3N7mm672+rWshC8jNCe95E3rmUBX85eINE1eee3EWtt0zLcd29H3+oGu7WQ29pXGQI5UkmCuVpRh1s983ycIApxzxMYQR3GbdtJJ0slkm+wnkkSMbW2OyFrQIrh0vukgEjGmFbXVSSRrKdqYI5Lolh/C7ntrklfmYpyolibSBc6CLs6AjQKKO6aonytTmBGqc32bcvpKILq0U7zxi06PzV7tlC6IDjaUhZ6sCC3OC/C+8Z8JvvKL4OyWE0eGTAOp1gWU4PBwOJSC8aJrZqH3C/mBlh+kyd4MurnRT/74bug2aLe7RrEVaHs+5J5nFw0lr50sI5PcsVuqlawVK2gkTXm6LB6y+8iS9LJrZBFNvuclZBKbZOylYcTZcXmTluf1J0dkzegxPzhniWObjjMPrXNEcill5F+7B338fuLrvpfozp/F6ULzmB6GYHAgfgk1trPoj+0+YMqlk/7M1VK7+NLlSSDgxFmDM9GsKs2QEsi6ekWi4hmcH6BOPk7wlV8CXcQpD5zZUuLIIIC1Qq0BiAJdSlYqOiGQ5Na2/rfsdE4CqXnKw/PSTp07dtl9jAhjU9CpneUnv15kAq3VrDFmVa1k0BPpSqTS+V2mlWWE0jSbaoXvlzDWEkcRcRQv8zmJpDkiw0Qi9NZIEmKMMCbdbld3C/9diUgmE+3ruf8CCOE7/x+IHeKaDXeRxiHad7o0q4DdiALV3ym9v+XcTQOiKoTlGVWcTghkPROsc6lql4TN+s/8JjiDUx5i42T1R2sArrQDYFfTzFohDuOEasOAq4JoMrEyDWSr+3vnJJUVahwbK1EoBGjdWvF2Tk7d/o6weej1jPO/h6NF9kEQJCVvtF5GPG3msyHDMuLImfaazneRJpmEUUQYhgAUCwXGxsfw/eW7Fyql0J7fs52BoouWmMkdxzFRGGLSXRKBdIfEKo1GiOtZRt7hSrvxXv0T1Llv4Dw/+azXfTuL6IJVxRmI6zsxIbi4rw+prwTiTCQ2qmKjalEVJpP51tnVT+x+NZznoS48hzr7ZfDGEhKhD8SRQgBjod6QtEOl+QIaxgp5E9bmayHZ6q55LyIEhYCxsRJB4Hdf+TIijUGhJ2HnyCQzN2ar1cxP1bYAyEgoPXcY0ZNQOsgkjiIaYaJhFIvJokfncm6A5mo++6xnUMeA0LmAW0Yk2Z4kKTIiCbsSSVrSKSqjj9+XzM7O9vSDJHONQhcmsVFlwoYVXNzoy31n6G8iYVjBRRVsWCyJ8tdNX04kYWwN6uyXkXARV5hOwuBEsNYRRRHxJpmqekEErIV6RPLDq2KSTyFQ9PPjewsm6lzH1UpRKBbQqdrcqWm0RdoM5Rr2ykKeRHqZuTJHdBbJZTryLTI/BLBlGdubhbax1sX0E0URxhh832dsrEQYRoSNRsuUpT0im5RiGRZTVoZuC4LO+zMmzmW3ezig0WHakqZpy4LyUWefgMgkJqmepOkQwaF9bFQvWNPAmbCvD6a/BBJVk7/hUoCo5OZzq6q1QrJzLKj5b0Ja18ZZRxhFzWQk2BriyMNYqIcKbBVcCZyAgmIhvbVc25uF/KSjtaZUKi7TqrqZq0YYPnT+Nt1MV5KuwjM/SSeRZFcYpom1J7qYfiDxA4VhiO95FAoBSgn1eo5EPI8oCtNLDPE99phvMvNdfk+SZUQSpESifNTiK0i4gCvMIi7u3Z7CifJwUTUgruOieh9usoX+FlM0qXplQiXa2+CySUFskcopUEnnatTrfSMO54SE/4RGJMvupeg7RDIn/ma2224jzpOHSCv6Z6gH2QjLsIxIWB4anNdKMsd0p3moMxJvmPtBt0VPFMcgSaVeax2NRgNwzUk3yw/ZDvcGkBQkZUUisa61Q2JQKBB4GuIaUpvDFWfpqWO6ZI5BaWxY9gFsVOnPDabor8s+brKjQmUEsj6bZpLMZRBTI44t9bjRNOvA1hFHBpHMUe8IYwETAYXmyC/40KPqxwbbbV00CLrvMz3MA2uE1dFmDskh//sm0XW6K5Fkx26HftAtyiyO4zSPxCOO4zSCK/GHJIUeh8+U1RO5tWUnuRtjsMYguV0SG/U61vcpFgUJF1efIwVEabCRBnBxdWvvpwP9daK3HDwi4m14ZZ6VQEhWKfkVTR8TsYAwVhDXklImSX16fO1QsjVBvC21vr1GEak5Y9gcjSOsD70WQHmHbT56q9OZmx27HZD3JWSmuizpNX+Mp71l52wXdFvcuvR+oyjExIl2FUURURiCM6tckWQCSkJ3U1vgGs7ZRPSVQGxYbr4WpbLV+vp6gXOgNBEB1prUfJP9SP3oWNL8E8aAEyTb08SB7yXayValgXSznYtLS7tss4E1wsrIRy9l76GdSLTWBEHQTBZt5hl0+MOGGjk5syTDfF9uhvYOcVTWWtBmLaD1+8YmxqThvJFxOG8sO6PHlVyqgbRCnZ1db1Tr+tDfPJBcyK7oIG19nT3AWdCCLe5JWXe5H6IfECAyCkwDwZIJ4emtMWF1lUEET+vE2bINB9QIa0fb4iCncXZqJFrrtlBvcsdlr4cObdFayX/dpMzMPdvChNUDncSYwZokbNeqAFfaCyvxQRZ/lNNAXNxfJ3p/CaSt5ab5RdbXCSxoYHz/2lS9LYKII7aAjcElOxXikg2l2CITVh7NzqcG91OO0H9k0Vcu9z5PJFkdqmy13pmjMPwT78oVE7JMbxhSMlwnkt/FJVU1vFISqLOaBqL99s/6iGGYdS75jpPMzCQLnZ1vAK+0nstsGuI4k6eRalnpToR9lGEYfsgR+o88KWTvM8LIChomJTQU288/0j6C8tJqpdsIZfjvpR29crW0V0gisPbegRQncXaFEF6yup650b/uxOz1YXDzTstWJ5f64yd5IAoXGeSa70D2vBEXLkHeFtiHDpWF6BonYOptmpDqlysmhYw0kCsay7SLHJFk2e1t/hGW5wttB7RNtjktZFNj5bcKXXKzmqSuFF5QQkhLMt36Q1kS2Qr3loSCOhO1PtHBFt7AcvR11hGv2HztbJwtKS69B2cORWtAa9S7fg4JpnC180kmp6gktC1ra4sHSRL4lTi/ciL2VQMZfpPECP1ApwMd8lF7XlJra1tqIyyLMFR5LYReHpPBwXX8pYM0knWwRnkBvvZQ0SKES+h3/Cxy6O24MESU7l3SvZksZJrNiFfYuhvqgv4SiD+evXQ4u6Esu4S1NS4KkYN3oD7yR6hrP4T447jGAi5cSslEd6h4m9/JrE2d17bRvB9r++vPHhHICBlWNWt1hP3mj9kuaPpCcgvFoSrT41qei3weSCK3QmkfT2t8F+KbMuIX4fB3of/y7yNv/ju4KEZENSuKr9AMLgndTUw6ur8E0tdEQgnGoHYewDpnNmyua5JII0T2vhH5S5/ALZ7AHbsXd/QeOP1lXP0C6ADxSiAasM2VSkbg6/jFYPsAACAASURBVO52+VpXzgJh8locZusieLtiRCAjdKJbUmFGEtkmSFEcY3N7dwy7g33ZfSiFtcMhd9tc0qnZiUJpDxGHsiFiakhhBvbchRz5rsQUP3MYFLgwSnLc0qjK3veVROk4GyfRPM51ONS3Hn0lEOUVk33LlG+wJlO61nWttqgTpXFxMnnL5EHk9o/CrR/FXfgm7ug9uKOfxZ17GqIF8EqILoCops+i6YhbrzQigAFTJVPqrCULkthyItnKjPsRtj96aSMiQuD7GBHiNJt9O2Sy50ORRalkpd4xlvspSzM/p0M+RBDloZSgXIyYcmKF2XM7cs37E+LYeQv4AjG4OEoJI7cv+mr3kpqwxBuLXVRB5dwE/UB/NZD05pRfitdfxj13vZy9F9HgXOJQilPT1c4bkT034t70d+DsV7GvfhqO3YubfxlMCP5Y4nQScM62FT5cE5lI7oUNIbrY1HJiI33dkXBYB/sIw4HOlXueVLTnIUoRx3FzG9lh1kY6zW1KKaxtaVFbDYdDXOLkXO5DykhDIS5GmSoiPkwfQa5+Hxz5ILL3LUgxAAMujqFukgUtkoTjN+e01e/FOQRrEK9gXVS5vDWQZLL2wC9FLm7gbBrvupFr5tg/mfQFJ2lZ8ziCyCLKg4NvRR96K+7Of4A78Sju1U/D8S/glk4k5/tjoHwS6rBpVs7afsRmAJRrJTSGMQmB9EMFYUQgI6wNnRpIZ8ivMaa5f8Uwk0geSqk+yNpaUko6xttCcZVOHOJYlKkjxsHEATj4buTIB5GD70LGp5PLxAZXb7RIQ/J+HMgSRFdFWn3DxnXEK4ToAvQ5CqvPBOIne/h6pdiGSyT2rM37wdvIJFMF03pZpDugiTeOXP9+uO79uKWzuNcewL36adypLyb+GeUlZJJqEllsR09/ScYxyS/f5IowFrKKvf3AsA/yEYYHvbSRLFJLRIjjeFmOxTD2sVaC5NaYsfK0kW8TQEQh2kPhULaR5G8Ud8BVKWlc9W3I9IHk1NjhGskchKg0uGdjpCcIziAurKAK00vORCh/vK+REH0mkIJT/hgqGKu4sIKzTrYq+mPZj6JSE5cz0LAJ8Y/tQW77ftwt3w8XX8Yd+xzu1c/gzn0NGgvgFRFdTKK4nFm2t0dGKlrl5E97XCNK9grpF9QQDu4RhhvdtBGguaVu3qQFw+UXyczMWaijUtJMLduojHnDQze/htI+SgTlIoiXEH8C9t6BHP4u5PB3wc6bkpqqMbgoSi+o0n/SHqG1EVlF4UwsNiwjfmleLncNBK/g0AF4pdO2sYQzoUoKgW0daXb+QI5E3XTO4WwEdZsQxI7rkN3X4d74I3D2a7ijn8Ed/Rzu4ovJXu6pvySpNNDODL4mC4ggq0RQa+RXLOuOVl47cmr8CCOsFZ3kkNXPykxaURQNr1+kLTFPbWjztraFobQ+S6/e9GsoDBJXEnP89BHkmu9EjnwgIZCCn1hV4hgXd/Fr0DJRbQpEIA6VrS8hos5nt7I5F18b+ksgJko2lbLmnI1r1plIiQ76l/+zzLYoiCRF50id76I8OHAHcugO3B1/H3fqi4m/5PUHcEvHk47gjyXHJZFzeBqQnIHLQi2UZjHFfoy3UR76CBtBt0gtESEIguaWs0NJIimy7PtLSb5qJ43lCZWiNCr1a4ipI4bEr3Ho7pZfY2yyq1+jOa+wyaTRBsHZCFOfD52T06Z6HlNfunwJpDH/urOVs4SViyf1xK66s9FYX2bXLmgbAJ3+kihMfBteEbn22+Hab8ctzeFe/3xCJicfw1XPge/hGKfgSxK/nWkaFqr1DccHXNr9jEqZjLBBdDNpZYUZM5NW/rhBk0inxn2pGri0VI1cUcrUryEOZRpIXIPiLFx1N3Lth5Cr3otM7e/p12iS2Fod4RuBJGVMbGOhYavnzwCE557b6lbb0N8tbatn098pWsRGkYvqUIINpvNtGMsiuUTjcEkmeyMdNKVdyLd8H9z8fbiLr+KO3Yu89hnci08RSLVZuz1JCRGWapJors0rjzDC8KOXXyRzrkdRtIxgBo18peHch6uu+tv8GspHKVA2QuIlCCZg353I4Q8gh78TZm9M/BoRuHSBucyvIX00OZBsZ2vDMiKeEeXHzsbooORMuNCH9hP0lUCCnTcgwRT+9CFXO/qF0FTO4c/sd6l/evDIrRqaZNL0l7TitWXmCLLrR9C3/zDy6ssUr/0ZiP8Ex1SyJ4iBpXqS6ZtRyFYONmE4I2RG2J5Y5hdxraKMAPEQkkiCnBw9ZGt3hntJPS0XI3EZIYCZa+Ga96OOfAD2vBkpeF38GipZMG6FX+NSoHCmMiei/XDqrX/bRedfwlTnMOXTfROhv5nopVnGbvwgE9/yfebEb31rNV46DeqN6Wqhn5KsAV1U0Myu6UyExBanHPrqGxm76i0QfzIhFzEYIywuVFFRHVcogfjpIsVuyNG3kqwjjLDZyBNEnkQEiDrCfAdFIu2+m+XfQbfMcJ04w009cV1OHEQO3Q1HPoQceAcyPplE8A/Er7FGOIcoiJdOgaj5w//430Vz9zzM/EP/isbJJ/smRl8JxJvcy42//H/yAzcR/oPfjOdM+fQ1Sb0w55xLQnqHEd38JYjgMOgISvZckwAFS8Q482/6v/HkKTj9hcRfIgrxxpI8k7Xkl1y6kBu9wggjLEMbQWRJh1rjMxwk0u7zWJ6rAZkzPPFrJM7wGIo74er3Ikcyv8be5PTI4erd8zX64tdYA5J7cw6FM0unsHH95Ne+T0LnHNNv/d2+ytLfKKziTh67WeQxsIh6IV469ZbE3eCQfu3/ukHkB4lD0AomvGqz7hU4GjZg8cgP4x30UAvH4Nh9uKOfxp35CtQvgC4kDnrRqVay9tIFXWXK/o1IZIQtQNsEmieRIfCJdNNAsiRi0R5aBHEhEi9CMAn770IOfyAJv529PpkBu/g1Ou9nmMaWiCQ5dBoXl89iK2dfSD9Xk+/8x33dUaqvBLIU74NkI9oYZ1825bOkqdoyXLbUtULwBCb0EqDS2pCGC9EuwnodZUswfQ3qjh/G3fZDMPdMkl/y6mdxF55LMle9sST5RylwtpkcdUnFHbfdcxthu6FpxsqTiFJ4njdwEslJmST5KZUUL4zL4BVg5npI8zVkz+1IoNM6VFndvMSvIaq1t0h2z8OIlDATa3r1PMAJAFWcVtN+aJf6KEt/NZDxg/i7biKaewF0ULXhEi4GRA02DGudcAhaHBPeIrg0jFZizkV7CF0pjciKcLFFRMOeW5H9t+Le/Hfh1BPYVz+Ne+1+WDyWVdRMiqGt118ypB1+hMsD3Ugkc6xHUdR2zJZPvjmNXdLwWRGLZ2tJocOJg3DVexIT1YF3IGPjq/o1Mvm3BUThIrD1eaQ403D1ebzpqzHhfF/F6G8UVu0Z1PhuFy+dQo/vnje1i7gIQbZnDoN1Cl8ipvU8SSqfgBjmwr2ETlNUEQ5BSDtps7hjAIffjT78blxlHnf8Qdwrn8adeBiqZ7r6S1ZClkS1Tbr+CNsYeXMWORJxJNFZW5ls2LbKzEJobYyLy2BjZGwXXJX5Nd6DTO1Jjo3s0Ps1LhmisBHK1C7gje+9aESjSzvcBQ72VYy+Ekj4+C9Ruv47nSpMoIpTr8WLJ7FRqEV5bEZ5937DIXgSMeNfAJeShDhONg5RNzCmLIZWclErWTGXX1KYRm76CNzwEdzCcVzmLzn9ZJu/JClX35tMBh4VMsIVg27RWZ5Oas3FcZyQyFa0C81x4Ewd4joEU8j+tyXmqcPvh5lrW/kabUl+w+3XuFQku7HWVbxwAgkmXpWwDDpwjcd+vq9y9NeEBZjKBWeqC6DHnjfRqboNy0U9Nuv6WnlwU+BwTijpGtPePDiVeEEcnA4PNLd7dy7JSO9Z3NEaaKT5JVOHkDd/FHfrR+H8s+lmWPfgzj/bvhlWLr8kj+07HEbYbuhKIp6Hc65Z9mTjWkiqc4hOzLomTMaBLiI7bkAOvx858gHY/SYkUBDTNBkn57SS/PJyb38kmpOpz0s0f7Rsq4tPQURDdN8L4fWdQGxjwfnTV6En952J5p6rxPOvFb2JWedMukPLNoGQ5Bft9M4RSAgolBiwJU40rsZT4FCItLt32qO4sg/T/UuyelyiYfcbkH1vwN3+43Dmy0mV4GP34haOgo2STNnWRbf2ZkcYoQs6SQRokkhWgHFjJCKJttFYSHYenLwqCbk98kHY/3ZkbCzxa0Qxrh41/RqIbg+Pv4zGR7qBnhONiy4eFfFL5R3v+4lK4/TTmPmjrrH4Wl/l6TuBFA++hb1//fe55icIHzx4zanw/Is7S4dvhzB1z22LH9shJPue7wrOEKgG1imUWCJb4rX6ETxJjloJbWTiXHMzrHZ/iQdXvRO5+p24yj/EnXgkqcd14iGSJVcue35bPLsRLid0kkhWOysMw41FZmWag1dArvswcu1fSvwak7uS7yObOsMF6L6/xuU7GhyicdH5l8C54z997z9r/MmL8PRf+yiNE/1LIoQBFHGV8f28/NOi7p+QKF547SvRxVcRjcXZbUIeGRyxg73BKVB1LAqRmMV4hpONq/CbBLK2e2o6wpv22WRQOOdwYYhrhEhhCnXjh1Af+DXUB34blJf6RVrnjcq5j9B39CARYJmGsvZraggXUTd8L/ojv416w/cipV24RjIWnEu3rU6198vBr7EWpAmdIh4uuvAKZvHEkz8pYh+9URTj+/ouT98JpFhsoCf2Ze1+M148CYlRz22XyS/xayQaSEIgEcZ5IBHH6tdSteOoZLvFdaFzBSUqsec6a3CNOkQgY3tAvGR/5pYKsrEbG2GEdSDrdXmyyHJEmsesp286B7qY2Irr1WT/HlHJeMi1e7mTRh5p5JhzFhcnNa9eB/CmDqnpUv+jWfveornwKv7O65HCFN7stfNm6TS2gbCNypGLJM5xT2B/4TiQahsS8XLtBirGQ8v6CSTX0LLBIZlD0UZ0FkG5cobRCMOGbkULPc9LQnxdq6DopcAJQLJ7aBJa1eFLvIKIow2isQ3ELJ3G33njBVXagbfjiIsWj/ddlL7P2o2xNyK6YMUrovzJZ8LzL2IbDS9TRbcLLJqSgoOF18Hq5t7nL1VvJrQgWJzbvA6+rFx1Zh7bQAmUEUbYTHTzd2Rl4NdjypKOQ0flehKI0thG1QvnvonyS18T5SPKc/P66r7L0ncneuWL/xI1eSjZWKpefUoFhcW4fHrKn70GYpP2s+HvJNYpCqrBocIxcB6eRGAmeL56K0GPCKytQjawtsNzG+HyRjenelbuJPt+hPUhK6IoSly8eELi8tl5Z9zTLioTzn3Tmlcf6LtMA7EblQ7c7g7+zQd58x8uVVUwfrpx+usoLymqOPzIIrAUM94FDhReB+ejJWYpnuablTcQrCECa3MxGpQjDBfyZiut9bpMWdthNug7nEN8aJx6CvGLJ9/1yrn64Z89T/HqdwxEnIEQiNp1Cyf+893qq98rYbzw2ufDM08j3vaJxBIckYPDpZcY01WM80E1eKH6BuaiPXhiLikCa8PyjJzoIwwRukVErceUNerN7UgisKyIhw3PPINZeP3hhw9KdPSfjyuZPjwQmQZCIOOlAsHuW9K21cvhxWNJIVpRQx+J5ZwgOEILN449h+glIueBivjK0ttYMgpP4oHINhpwIwwLepmy8t+PcGlIIrCUcxEumj8G4r0MEOy6WY2XgoHI1HcfCEC8cAI9dcjp6kX05L6XovMvYWpGZ9vHDjNEXFoDC24ae4bE2+HAFHlq6a1kRUayEiZ9kmo0IEcYOuQ1jcyUZYzZpCz1KxOiPEw90uHcixT23/5SXD6Dnr7KmaUzA5FnIBrInOwjmn/NmsppwvOvPBLOvVCxtYuKJL57iLWQRC7jNBNexK0TT4Et4KuQpWgnXyvfSbHNgb61kI4Xo6E4wjAiTxK+7y8nj6Ed78OD1i6EClOZU9H5F6vh/IlHzOJJovnX7Rx7BiLXYJIvHv8F/Kn9btcH/jXX/aMX50X0XOP019O8uOEuqpj4PzQHguNcX3oea4uIqvD18ls41TiAr+K++j/ItzRazY0wZOhmysr2EIFmYtwAJdweyLYUVj6uceopRAcnbv/EyQsHfvCTBDsOOR7/hYHINbDsPf/AHcx95h+pl39hbyNeeP2h+utfRPlD6khPCpjhnKAxhBbePPk4Je8ikfNBDA/Ov4+qBb2BDPQRRrhckbcqaK0v2aF+pSMpomhFfGzt9S8RLx5/4Kt/VaKT//W7lbfvzoHJNTACGbcQ7L0tad8f+2rj7PO4aHgd6U4EhSWkQE3Bu3Z8HoIIX8fUw93cd+FDFBVY1KYmEI4wwnZHPiqr6VDPaSGj0bJGKO1sA6K551Gl2WdFFygcvFOVxscGJ9KgGo4uvIoa32vVxAGCXbd8sXHyK8TVqi/ah2Hyg6RbeCpnaYjPDnuWfxT9U2597TOcemYfKizzpfLdvFS9vrUDYR/8H20i5mQdYYRhRKemoT0PpVTThDU0430Ike2BLsrHVJe8+omvGD1zzcNSnEGCcRtd7G8J9zwGRiBL+2/ElE9ab8fV6F3XPWVqF8+Fcy8gWtxgUogcNHMZHYkuYVBi8AmxotjrTvKL5vv5sQP3Eky+iXPH93Dmq0XuOfkh6oDC9tX/4TpejIbgCMOOPJHkfSFDZ7YeOjjEw4Vnn8WG5fPBkbuf8fffRlyZsxfMzoFJNTACaXz+lygevpvw9S9Se/oPqjasfLl+7FFUgOuvHyQljnTS12IQHDE+FRew6AosuBKn0Lwv+gNu9Z7lvL6a6OIreLpCo+JRPHcOT6dlqQawknK40QpuhKHHMi1EqZYWMkJPiAhYKyrA1l57DFObf7Ty6L+tN166V0qH74Ynf2lgsg0kDySDevw38Gb+lxfPvxa7xsKjjTNPf9A5LKCc68fmUlmMuqAkif6quABxsEdOcp08w151nElZoMwO7ggeZclowmMPo5zD6QKihEO8gkcSvjsQrLPa6QgjDAr5iCxrhzvyctBolnA3uMaZZyCuPQHg7ziidfj6YLKWUwyUQBYQSju/wzpr0RN7Hq8ffwJTaXiifJyzbmtJpEUeWgwNAoyFt6n7+eD4p3jzxAvMBBEFaaCJMHFIOXQ04r1IFOLCGOoWYsdR76Z0b8BMk+lPEUWgWZDXOTcyYY0w9Ojc+EwpNUoqXAFN/4f2MeWaV3/tMQoH3vK4qZzF23HEhmeeGah8A92EY/Itf4+4csbqXdfhH7zj4Xjp1LnG6adFfLXFfpA8ecRUXMAee4x/OvlT/PIN/56PXHuGHZMlYjQLDc35eoH5eBznT6MLU6jSFG68hJ7xODN+hM/qH8BLOaO/RRSTDW2b1DHSQEbYBlgpL2SELnAW8cTVT31VTGXuzPhNH34k2HsbpjJn9bV/baCiDVQDWXryV5m868dYevw/SPjKF6p4hYerL9/3PeM33Glt3XgkEVmbjHbyKLsCd8qD/Oz+X+XIwVkuzAfMv/4CREtA3rknxDhAIdpDnMWIz8R4jR8Jf5F/VfvXRM7Hkxjr+lfKPb2ZRAO5jFdx2Yr1is0bEBCX6rjb/Dde5gtJS5xczv13Q3BWVICpvny/MpWz91144J/XAJl6+0+4xUcG5/+AARMIgLIXCPbeqsMz34hFFx6un3jye2yEQ2m3VQWlMrNVhQJ3yCP8wv6fY/bQbZw69lXs4jHECxAd0EsLcraVLGicx/v9T+IQfrH2Kx1hvP0hkWZr22hiXS8hLDtWZM1PePCT06XvWNC8X0dT01xTJdttYhbKZFRKYcwoCbcrlHY2hPqJJ5HizGMuqlDYe6suaD1Q/wcMAYE0zjyLKu00euoQemLf5+rHHzfxwnlfj+90zsSb7AdJfBRKLCEBu91ZfnLHzzO773rmjj6BLZ9E+aXkOGeXTU5ZZxeRlBqSCeGi28V3+X/EK+YWPhH+GFPSwDivD/kgrQnFOYcbImfkWgki/12v37nb5/nzll2/Oec6rG1pZ65ZUSD7llYAQutiJMt9LpH/XbIHqyzfqzvZfjUxN2bbFCc7sgoiiRVZmv8tv/eu9093K2/nnhsrPfv8b9Nvoun0hWitMR39d/ssh7YGef9HvHDWa5x8Mgx2Xn9PvHgC8cdMdOHlQYs4eAIJrv4QjWOfd7Pf8S849OMfe+7rH9lzrPbaY9dOvfHDzsRWRG2ufVTSDaFCBz8Y/Ao37fWZO3sMWz6B8ko4Z3sO2vxnQlZx16GdpcwU31f4TzwUf5Dj9hoKEqWmrE0VvytcOknaPmsgaylF0WuCko4ZsznB595baxMCsLZFArnvXJ4c0gm1G7HkiSL7oIM2thDLlei2ftTJHOmiJeuDopLVuVLSJCAlgqSfZU7o/LW77U/e/h5g+fNeJvkWE0ye5JRSKJG2iKzh1p22HiKCszEq8NzS0YfERrWXf/j44y/f89PnOPPf/4pr7H4jPPfnA5Vx4ASy+Mi/ZMd7/wnn/viH9Lk//qEY+Ezt1c9/fPqODxtw/maq4Vm4bt0F3CDP8/6pB1ls7CK++GIbeaRRc81zevkzkvpmgogldgE75SwfDn6Pf1f/GYq4vvlBsgl1K6/fiyh6aRD513lycIA1tlnWO9OcjLVYY3sSQivBM4+1Wzjb+lBTSxjMFNU+ccNKRNZrYs/+ZgSUEYdSKqk1pVrvk89Ux3mqZxvdtJdOjXIzxmSmyWfkPgrpbUfzmStM7dUvKFud+8x/FLGAnn7fz5mF+/6vwQrIEBAIgAomKR6+m2juRcQrPVA7+vDHTcVoUZ5LJ5RNMGO5xGyAIwLeH3ySKS4wf76GUrr5/TLyYGVXTJNEsDQo8Q7vPn5P/h41N44SQ3/8IG7T7Me9TE+rEUXeTGSNxVjT1B4ycrDWYp1tEkN+8pS87SeH1qSXHLXVcM61ZLmEn87hENf9HjpxKX15pWM7n2EqSCsqLzs/p9VkWovSurnqV1rjpaSTndNpYlpO6O1trFtTyV0nH9J7pSNfviQuh7p29BGC3bc8YMMq/s7rkNKOQYsIDAmBRPNHsVHN+PveSLDv9s+Wv/Kf5+rHn9hVOvJ26xrhppqxIhewRy7yrd69NOKQsVJMrVJAxOa0jRZ5kJLOajNDQkw+u9VJrtfP8GT8NkrYviQXOmhGsVzyuT20i84JoRtRGGMwcaJJmE6tosMktdyEJesiBUea7b9FtsFOTWXN5/UgwE1BctPLBOo6WWe+lvzpbaY/AINzYXp46p+RDo3F03iexktrVmXmtOx6bddewRS2VkIZOdPbkZivDFLwXPWbj6po4fXje//q791bef7PaZx4wsRnnx20iMCQEMji47/B1F0/zuLj/17VX7pnEdF/UX7+Ux8dv+nt1tadt3GVOenUCkMZjw/4n2U/xyjNOpwxVMuF5HuVkIi1ismpKvV6QBzpVZ3hmeZinWJcljisXuCLvI0xHHardyZMrx3HawvI6EYYnRN9J1lkRGGMwRhLbOKmuSm/4l3NFr+aTGtBwjlXmHX8Eom283mu5s9raYSpb8kBjVbAiCiFp1WzAKLWCblkE37WZv5vpyy9fWEdzvQRgQDZ83CiPOLKC/9L2ercX5z6xPtrgJ551z8w84/8v4MWERgSAgEozuwivPpdEs69gHilz1VfffCjpoqI3jwzlkUzJpZv13+KXzTs2lXh9VdncU6YmKwj4rh4YYJiMWTnriWOv7ZrzdcWSfcLkZhZOds0f2y9H0TAgVmBQDoH8UqagTGWOIow1hDHFhPHbVpFp99BMufuCm1n7fQiimEPNd1uWO15LtPiOrSWvGboXLLICo3BNUKy319EUFrhe15CKL6H53ldHfidi5XOvtDWH/NBAVdot2iZrzxM1eja0QfxZg5/zsV1/F034k0eGLSITQw0Ez2PxtkXsdZab/Ymioe//Z7w3HOLjVNPafEy/8T6e1Pmo6g5j9v0E9ysvsrEnhicpV4P8DzD7j2LxJHGWWH3nkVAiNq0Dwdt1Xo73yf93TrNmFTQfbLZJ6Z6RxTHrUGZDdouNuvmqjL955zDxIZGI6RWrVOt1KjV6tRrDaIwxFjTdq5S7ddYCZk8nWawEQaLLIBgLcVv2vqLai0enEuCIcJGRL3eoFqpU6nUqNUahGHUlhjY2Ve6EUr+tVLqig7hTcawRXzt6ieeVOH5l88Xb/zf7tU734BpVEw498KgRWxiaDSQBbuf8V3KVZ76rxIef2QOHXyu/Nyffe/Ydbcb27CeU2s3ibQjc54n0/y36T9hx9gCMztrLJwvEUWafQcu4vsx1WqBsYk6O3aWOX1qhmxjqMyJnnewtz535DeQUlgiAmzadr+wbGWXRTKlaDNLWUccx8Rx4ujujHzR2iOrLpH3ZzjXHk6bd4DmsVbCuBTH8whrRKrwtvpqr+iPdq1jJf9Z8jsKWhSikwiubgsIa5JgiSg9R5Q0/Sj5KLCsvfziJq8hK6WwVzCDJIs/JyrAlJ/7M2UbS/eWH/+VBUBN3Pm37eKX/+OgRWxiaAiEr/8b/Nt/gMKhu3R07oVYgvH/WXnpc99rav90Q2YsR7KTYMMFXKVOcJd+gLGdBqViyktFfD9m955FKuUicaw4cGgRFFQrBZQkE6WkW5Qo5bBWNUkj/zdtDIvivN2DhVyuyGY/rOXotsLLf2aMIYpMziS1+vnZ563vdFPjaiMWElLKCHM1Z36TYC7B8bzVzvNtAQdO3Iomw+yrzgCFtf4meRNVJ1F0G3u9zKGJ6csRplqKiKA9je97Tf9J/vz8dZRSWNtzfXJZo2m+0h6mYqX68r3oib1/QlTF33mDTBaLlActZA7DQyBAVLkAwVRcuPEvEey+5dNLj/3K+dqxR3eOXfdO6+rricbKtneyhMC71D1cPfEa4zsiTOixtFRi1+4ldCFm8cQYxVLIzI4qYc2nXgvwgpix8QbzFyaY7y526AAAIABJREFU2VEmjjTVahFoX91NTVdZWiqhjKFOiVftzfiAbZY16c+k10kcziamrSiKMXG7Y7LXZJA3beWv2X5e72S11PlHPsS0fbW5+mTWTcYtcZ5nq3VWmZTXffnkus651sS+kXY6tQZY8yy73KneyohHEj/Wappjr9+ts790006cc8RRTBzFKCV4nocXeG1b27aRiGQ2gysLreirwFW++Xkdzr14Zvb9v/AX9dcfJ7rwkqlfODZoEdswVATi9t1JoX6exSd+U9XgAjr4VPkbn/zoxE3vtJYkGgsu3ZZunMekNHiv92dM7AjxgpgLZycQHDt3LWFDj/JSkd17FxDfUL4wThh6HLzqPMYkbqJdu5c4fXIGa4XJyTqiHIsLY0xM1piarjI/P4EvIWftQb5pbiPA9SWEN0PelmytJQwj4ijG2t7PbKVonTa7NODyvpUuWHGVmiu70SKTlhksTzSd8m0IssqEvRmT+orNr9X3c+k1spptdI1qypFDD2JYSaYVzVm0+kK363VqId0+t9YRhhFhGKE9TeB7eL63zIx1paH13JPoq/I3Pqlsff5Tc3/6o0uAmrrr4/aiTAN/OkAp2zFUBFJ96OfZ+53/gvDw3RJdeBnxiv+j8sp9H43LoRLlO+csXOJyXmEpE/Ct6kG+ZexrFKcdGJg/P8H0TBWvFLEwN4lSjpkdFYgViwtjFIsRszvLHH15D5OTNYqliDD0EXHM7lxi/uIE1gozOyooBcZqJr0aj8fv4YKbYkJCLOpSxV03RJIyEGEjIorinmGTvQb1SteF5RrASpFdXa8huddd0FnbaZlGkxyU/ZcjndZny67Z4QcaZnR/Lqk5qWnqy+XOSG+CWsvvuhZyzrYK6DQ1rlUb7CVHm2k1NtRigwojCoUA30+mJJcS4RUIJzogWqzq6iv34++84Y+dCfFmrhFv+hB87mcGLV8bhopAAGpnXwDtmb0/+Mcc+IG7Pvvk+3e8VHnxs9dPvfHD1tRitXYzVjrRIGiBb/f+lB3TS/jFmMpCkUYj0TBwwvz8GNMzFXQQU68UqCwVOXDVhUSeWsBV18wRx4o4VpTGQiYm65w5PUMQxEzPVLl4YQJxlpob54HoI6i09b75PxDCMKRRD7sSx6WSxpraXMUuvlZyabuedLxfBT1NOK6dNpa33/JZpVHQiGv1mI0jM790zrr5T7Ln1/1121GX6ve7BHVmpfDqpP2t7cBNrdlYatU6se9RKAaoNPrySkJivopFFTxbfvYeFS28/tKdjy1+7uTvfJ3zn/r7Jpx7cdAiLsPQEcji2G5mdl3Pyd94hz756zbCK/7h0jf+8Gembv+wASQdHKs607O6Vw3nc0S9xF3B5wmmASznzk4xNt6gMB5SrwTUaz779s8DwvyFCbwgZsfOMhcvTOB5lqnpGuWlItYoduwoIwrC0G+RTiOgJFWeMu/kOfNmihLj6N+eILVanSiMgI6JN3U69zt8di229MQUQptpa13tdGtDtnra6y/WbcoTkj1EVnG8DzK8OiGvlgxRFGOMoTiu8a+ggAnXVKUFwC49/T+UM/HvP3GHRChPz9z9s2b+8/9ssEJ2wdARCI/9MuP/xzOEr3/JxeUzKH/8D2qvfOGnw7PHfW/6kHMmYvVJub3u1Xv0p9g/forChKGyWKK8WOLqI+dAHHPnpigWYwqlkLjhMX9xnN17F0BblhaKjE/UkSCmVg1QyjI9U6Ve84HU5OUUYeihJOa+8LupA1MYLP3ZZa1WrRPGNnU6dvg1hnQAtpvFVj42C/V1LRWh9d0VGKazmsaw/ISt1yI2gs4ckMQU66hWaoxrsyxoYHjvZKMQwKL8gMbpV73qq1+IS9e867/aRhk9ttNO3PYDDCOBDKWnauGLv0Yc1mx48itSP/bQ1+PKmQcXv/bf0EUs1gqsbfKInc9OtcS7vU8ztsOglOHsqWn8IGZyqkZYDVicH2NmRxmU4+L5CUQ5ZneWMQ2fWq2QkIRVVKsFJibreKWIaqWA7xsmJuvEkQcNy3F3hC9G76OEy5HH1nV3ESEMkwirruRxmaBZq6npGN7kfx3+hGG/BxisxrAV6JZMiHPUa422LQour7tuIfPzYa2oAmbxa/8NU527v/byvS80jn9RnK27hS/+8qDF7IqhJJDyl/4DV3/8AfzdtygAXZz97fKzf4Kp40TpVsJBV6RRHFhqCG9VD3Dj2HOUdliW5kssLpaY3VlGfMO5M9NobZmcqmEaPufnJpmdTb5bXCghOMYn6phQU68FTO+oAolfZGKyjniGWr3w/7N33nFuVOfe/51zpqiutruvjQs2pphmwBgIELghEEJIgABptISUS+pNIcl7w02/uSmkAaETwKE4lNCrscE2YGxs3Lu9vUladWnmlPePkdbatQnNtnbX5/v5jKWV5N1nRjPnN085zwETDl7hZ6FXRWASd58fHwBQSvaHrbyfR5547BfKktT7RKAIGfA3NAMpz5cNngwrpQR3OUgxTzXC/U1FmKFEVpL0ukfAgg1/J8yGNepwWv/P55FadlOl7dsjQ1JAAGDr9wjM+kNE7bk3YcyVL893ute3ZDc/Z1CfoVBct+PfIUFhE+A09ihqatOgVKKroxqGKVBdm0EhYyMWDXnv2QK93WFISVBTmwYkQTwWRCBYALUEshkbgEK4KgflMhTyJsJVOYAATpaiz63FAn4uDHhJe29m+r4ZLbyJjYBy81CCj9i7Us3IZk890hhjA70REEjujHjl8Co5JKE2U+mNTzKnZ+OOid9pfaj+/LvBqqeIrhNqK23g2zJkBSQ099uwGg5G7LEvs9Y/Ts0q4cxLrprnuRbenAG1pzBWqe9VXhk4mLyFo31L4a9T6IsGkE75UFOTgelz0d0ZAaUKNXUZ8JznfUSqMzB8HNmUD9mM7YkEgERfAD6/C8PmyOUsSEUQDBYghQmV5VjB52KrmAEfcTFwTfR9AQEkgOAowAwBSi/Aoxk+DBYOJVV/M8ayeRDovwGrmlAcpUamihTDV56DRSFSq+ZBCffubT8hud5HPmcYE2bDmv2lSpv5tgy9JHqR1OLfo+mb6+B2rVUiFwM1A3dmt774nULHdsOqO0hJ7qJ8VTWPXX2vJIBT2b8wvq4DilB0d0VgGBJ19SlkUz7EoyHUNSZh+h107KwD5wzVxRBVb08VCFEIhgr9kwzrG5MAlUj2+WHbrld9lfMhlQlggTwPHICvWDW/r1HSBQnWgkw+G3LVjSD+eijhai9EMzQp04PycBWlFKZlglACp+D0V+eBMCiRBwmOAT3oI/Caa9EReX57x0OCWhbybZvN7PaFbmDqmfdKJwVqV4mJP/gh1pwxdPd7yHogABB/5XrkeU7mmxfT7NbnNvB016OJZbeC2hBQkrydF+IqC6NILz7kexqhBo7e7hByWQuR6gxsv4uujmoQqlBXn4aTsRDtDSMYyiMYziOb8iHRF0AwWIBhcSQTfnDOEArnAZchlfIjECwADHBTChvzh2G5OBl+yOLEQWBfJ88BAAKgx38XpPFIqFwMhJn9iwZpNJVmwHlIdr0mpQSlFIFAAH6/H0opFPKF/nJeUAZIAbg50BP/G6R2IhR3QAgdced2UUgVlCTUgki8fhNEpuex7MbHNua3v0RdN6u2fX/oeh/AEBeQ1Bs3ow5r4WuaQ1h4LMyag25IrZkPJ95HCbMHF3UC8BaNygM4njyPQ0etRY77Ee0OwzAEGkclkOgLINkXQKQ6C1+ggO6uCARnXu6DKvR0RSAF9QSDKvTFgrAsDp/fRSbtg1MwEA7nIbmBXJJhgftxJJQfbL8lz5V3MQkHxB8B+8gtIKOO8kSEUBDK3lOPJI1mb7Dnnmm7REMpBcMwPOEI+CGlRDabheu6ZcUGJpSbhZIu2Km/AT30QijH7RePkeiBAAAxbOXEYjS17hGYNVNuYOFx8I0/ntRhO7LLb6m0ef+WIS0gAJClM8FqDhYi1Q63d8OLbqL59eSKuyj1QUIJAmCAFyLB4IfER0PzEa4poKu9GtxlqK7JwDAFOttrQJlEfUMS2bTPW0Aq4KCmJoNUPIBU0r+rzDdjIZX0I1yVB5hEPBaEaQr4/C7cDEVregIWy4/AghfALLVu3JcUd9gTCtcBqZ0M9on5INM+AVVIQjkZL7RXnLFfOjRaTjR7k38nGCXRkFLCMAwEg0GEwiGYlgnOOTLpDPL5fPH/UYB4XofK9YJUTwb72D2gR18G5RbnfI1A4eifOKgEoT7IxBu3UZ5oe9WNbnhBpNrAGg4XaXpQpc18R4a8gKRrjkPTR78Hs34GAyhYoP5PyZX3QOaVItToP4tLbdtzMHAoXsdJo19GNFmLVMIHwxSob0yht7sKuayFqkgW/oCDjraa/sorwhS6uyKQksC2Xdh+F7FoGFIRhKuykAUDib6gl1g3gHwcWFI4A82yCRZxSn1X9/0BKa+XL4mIVQXjo7eAnXMXyJhjoZwUlJMGQFBq/VISHo3mvbKn8+btBIMQ0i8akeoIgqEgFBRy2RyymV0eB6UMhBpQ0oXKxwG7CnT2t8E++S/Qgz4ElS8AIAOqtEYihBpKZoVKrrwXRnjMn0FtWA2HssjJ5yNdM7vS5r0jQ15A8PqvsP7Xh8I3fraY/meBsxIt9zvd6zal3rrfoD6moATx7vu9k1wK4Oyah1DlS6Kjwyt/q67JQAqC3p4qGEyioTGJeDSETNoHy+aorUsjHg0il7FBiFeuKwVFPB6Ez+ciFCogHg9CCIqq6hyEQ9GbqMECcR6A0uC8/5q/kcEiIl0o4YJOOwvs/Ie9sNb4k6CEA5WPQ0nhJSFLXon3n/eLrZrhwzt1Wi59plwwAIAZDIFgAFWRKkSqIwgEAwCAXDaHRF8C2UwWQoh+0QAIFM9D5WMgvlrQY78JdsETYKf8CMRXA1UogFBjxIrHAO/Dz2Ry5b2G07tx84fj2x+YdkMe5thZov1P5wCv/6rSpr4jQ7YKq5zInG8gcdy3sPVHE4yN17Ry4qv5a2L5HX+sOvpiCUJLHacIVyaqaRYn1i1CS+doSAGYJkd1TQYdbbXgnKGuLgXDFOjeEQGA4hwRhZ6uahDiJfKqqrNIJvwo5E2MGt0HUIVYbwiWzeEPOsjHKN7KHYPV8jj4iYDcj32vSgycfOXFiFXBAaEMZMa5oFPPhWxdDLXpn1DNL0Kl2wFCAcPvXcQE/SXAXjNBNSJDBZoiCu+pJ9bgRpilqqmSh2FZFgzTWw8dALjL4bpuv1jsak3CQCgBlIASBYDnAMMHUjsdZOrHQGdcBFIzDuDwvA5CPc/kfS7dMKwgVCkXKrH8DhDD/6dnCOGsaiwL/XebqAo2Irnk+kpb+I4MCwFJLP0jsPSPsGd9VoTqp8Osn/b36KNfvjazacHo0PTTpMg7BMTrgasYRU+8BpYTgwJBbX0aiUQAmYwN0+Soa0ihs70GrmPAtDjqG1Lo7qpCoWB4pbuBAiyLo625DpQqVEWyyKR8yGaK64UQIBmz8SI/D1nFECaF/db3ajDlnggAgHoTsVDwqlbopLnApLlQiQ6oHS9AbnsS6FoOlYsB1ACY7QkOYfAKn3f1oyVKQY2wpoQjjQ/UE0thQKt7VZYsI8Xloyml3sJPhrdeB6PMm+yH4pLILkcum4Pruv3eCKGeAHgtATkUzwDCAcwQSGQyyLg5IAf9B8jYOSB+/27CUVpz5v10IR4O9M+2l4IwvyVTa58x8u0r2kZd8cKdhealKLS+JhL/NXz2e1gICAAEjrwC1qgjVN8LP2CK5/uIHbkp/srvrwvNOE0CMKCgDMJJH/fhudR5+Ir9U8iABako4tEQAKC2Lo1c1kKiLwAQr+cV5wzRniowJiE4Q3VtBtmMjUzaB3/AgT/goGVnPQhRiNRk4WQotqen4DV5Bmxgv5TuvhO7CQmh3tBQcLwfQ2NAjvws6GGfhYptgWx+EWrHc1C966CcFOD2AYYNUKsYOvDEmGDXJMX+Ex+6I8c+4V14CIMZLB57nlj79mGp0sYYA2VlYmEYoJQWl5aVEEJAcIF8wev6zEvLIgP9lX+UMUBxQDhQ3EuQw1cN0jAbZPzJIONPAmk4HMQf9N5zZb9wgLBdxSF72K+RhirWLCsFGV/8BwrC/tx54+w09UVY5PwXBYiN7MrbK23mu2LYCEh25e34iVL46azXJQuPg1k79S+xZ/7ra6n1zzeEDzlDipxDJKEIUIlH3c/jSOtVnBP8JzpioyEkg+134fM76GirBSEKhilRU5NGW2stlCQABQyTIxjKo721FlIRRGoycB0DyUQA/mABvgBHooXhFecj6JCNZYtGDQ325JFAKSjhAlx6F2rdVLDGqVBHXAVkuqB610B1LoPqWAbENkEVEl6YgdkAMz3vhJbWsFZeqGuQpzIS7xQ/CO8rbr+nho6DvITS797jfx/U0oYSCkJJvxD0b4x6noTheRODy20553AKDjj3QlKlcJRUnrgRygDiCQ4kB2QBysl7FYhWFUjVRNBRRwKNR4KOmwvUHgxiMc/B5RKqeFPTLxyktOTvyPd2y7wPML+lUmueNHI7Xu6u/+Tdf3M6V8GNbZWxeUeDkOEhHsAwEhAA+OkxV0J0rla5Df9i0klHiV39V88LOUMAMJWCYkSQnArgl/k/4a2uE3AKeQxTjPUYVdOHrp56uMIAJFDf0IdkMoBUMgDTFHBdby5IIW96pbymQFUki96eMASniFRnwR2Czr5GLJD7f9Go98KAWDa8gUmRYgKdu4ArvXBBeAxI9Rhg2plQjgDSnVDdK72tawVUfAsUzwJOygtDMAugJkANL7ZNaFkuRQ34myirSxtih2evM1gw3o1nsMf3Bs3YHvxYLgSDxYFR1v9aSRj2ZEdJJEpC4XIXggtwLiCVhJKq6Fl4+QsQCgIJBglIF8pxAOFCGT5PMKqngDYcAVJ/KMioo4HaaSB2yBtZOAAh+iuqPNGgu5Ljb3O8RjJF74MoCR575feUGP4be+7/VB81A2zqHzIiePRVlTbxPTEsv7ngEZ8hRqRJmXVT66JPfmPD2EserA8fdpYUOYeAMFAiCVcGcoogQvKY438BH/E/hBnOGwiTPtAAQ6Qhj9bmOhClQIiClAQTD+pBb3cVkkk/qmsyaByVwLYtowEAkw/uRj6m8FT7ufh/zu0wwMssGh6HcfBKgd4trudREGp4HguDtzsF7pUDp1qA6Aao+Gao+BYgvgnI9nqxbTfnDQrM9ISF0KKolJbyLa3hsXsv1ZHgvezW1+nflLv2Pxa78pYS0nsUhT14D2/X2r30d8uro4QQ/ZsUxZ+l97w0qa9ouWeRFz8CIL3vRElAOp7nShmIGQTMIBAeD1I7HQhPAIlMBGk8EqiaAGL5vPOGA5AKSnLvd/SfBwObJh6IlHRDSQ4WsFXyzUdox/2XRhvPvWGmE9vSzft2kgtW3q3uGGbHZ3hZCyBw1GUQfavhdm5lMtcnaKD+R76xR/18whef5dJxDYAogBBCFCgEBExkJQUDMM3YiNPYo7ho3D0IpOPI5Sw41AdXmIhE0giHcuhoq4UCMGFiL9IpH3p7qlBTm0bDmCS6tgTxy+wf8ZR73qDk+bA7jLsNfsVXBwoKYV6hd3E3lQvAzQDpDqjYJiCxFSqxwxOWZDPAs178m+e88AY1AGJ4j5SCoCgupLzk+e1FpvTqUBea0ixrxlh/mGi30FGZYAAD77rfzmMpn8U9uHy2fyuKgig+7xeH/vAXKYaH1CCREMUQlOutP878IIbP8zLtaqBmCkhkCkj1ZJDqyUD1ZMBXC2JaKLadBgQAIaGU2E0wvP3y/uSBKhrl7FpxUBFqmrz5plOMQs/GH8lM9y+Zv5aFmo4XbmAUsm/eWWFL3xvD9psNHXMl8U36kPJPPSPUev30dWMuundC1RHnSpErEK8MEKTUFZdCQoEgr0wIAA00hmPpQpxpPYzD2BvwkwyqRhfQE61FPmchFMqiviGJ1uZ6SEkwYVIUToZgTddMfKvwT2RlGJSIoiXD9hAOoBRSUKWrftc7/eW+pXwIqJczAgUg4M0YdrNAthsq1QKVagPS7UCqzSsfTrcB+T4o6XihMFHwBq/SLOTS7y2FOPrDHYOEpv9BDXztnfbN28F9UgRQWjGRMi90BFLMP5QPmoPyG6oomt5gX/Z8wFaW/+h/IGX7U/qnKPhl4g8lQZTwJkUp7n23zIJiNgizvPyWrwaomggSmQRSPQUIjwMJjweCo733zQCIWexMKuDlMGSZWAADPQyQfnu1YAykzPsgLGDLxPIHaef8y1qaru2amd30dDq3+WmSXn7bsJyYNSy/6eCsy0BUDvmdiw2eaOXEX/ufvjGz/tx09YtlXsju5zEpXmiuspAHYAOYTlfh46F5OCX4NHzpJIRiqBrlIJUOIJOy4Q84qB+TRq6Z4+b8D3Fb4RqEByTPh+UhfHeoXfFwtZuoFAer/rBV0Vsh6PdYwAHFOSDyQC4Gle0Csr1ArgcqGwVyvVC5XiBXfJ6Pg4gClHAA6cXaIYvtLCgDQAFaVK5ygRkQHioTnf4ToPTaoH14V8fg3X22JFJv/8nBJyMZ9G7ZMS39xjJB8DZRFAe5646fmv15KS+UaAH+WiDQCOKvBwINIIFGwF8PBBtB/A3eUgBWCGA+EJN635ss26C81iKq7CZpgJjrkNR7YZf3AUINg++8ca7h9G6+RmZ7/mJExhv+SXO5JD5kVt5VYUvfO8P62w8f9xWMuvgGNH0D5gJfcO2o82+ZVn38pUJkCoxQQymlSKl6CCglvEteibdueV4ZUADGkC6cYDyPs0MP4KjwMmTiFgrKxugxfSC5Ap7tPRc/LdyEvAqAEjEkk+f7i/6qmd0GzEGDYHlOhJBdAlPS3uKYCOGFUsBzntDko0VRiXpzVvK9QCEBVUgChSTgJL3EvpstG1iLA57c9fOA56UwWOmueZD47JnSZ8qe/5tP7uYZlYcGBwjCrkcFVRRfo+jhlUKHxefUBKwqL6zki4DY1YAd8TwIOwJiR7z37GoQXw3grwNMv1eSzQxPzMun+fQ/quIxK72wu0gAA28etFi8dwZ4H0FbxBffzrr/dc3mC93MIavvgGi96T+Rev2vlTbzfTNszwj/kZdD8Axkx5uMx3cIIzz2EuqPzJv41dc5oSbzLgyQ3U/6gUNeaa5DySsJExezjKU4hT2JmfabCERcPNV5Hh52r0BahWESF1Lt/5nnw4XdE/X972BgvgMASl1YS4M63SUwpGwr3hkrif64PaTwvBQ35wkPz0HxXc/h5jzPp//1fHErfaYsV7PH/SjlCAZt/84bIbQs78P6hQHUAGG2FxoySo++XY9GwEtUW0FvkTAzCGKGADsMWGHvc6XqN0Z3hQ/LDmv/JoFSVZxScpBXUy6Yu3sTpeeavUPZNaAIZZBOVu684VgGKS7gybZ/GpEmRsccJSjzIbfyjkqa+r4Z9mdLw3m3oOfRL3o/MHtR3anXntxwzk+4SOUNwswyL2Qwg70SBQoJoQzkwEABhEkWQjGkYMMHBYNwLR4fkLcXmP5PYE9C4yWCB3sOZNfXUH7zPPj5oF89YLB9G0FQe/AW3nH1x91s2/VYWht9j1u5TXuys+zvq91CXWU7uQcPovR+KUOhBWL/0e99CJcYYR/vevRHRuyV3z0PUTgTABl1yXzV9Y8LKm3mB2JYn01Vx1wFMzga6W3PMZGNChaoO5knWhY1fXmptGqbSHHVQvLOsdqyZCXZlXQXygvmG4RDgg4IgQ3zQzfkefsw2W6fHPhc7en1cvZ8F76HTw0Kb72X73vQ3+7fh/LQVrla7MGed2OjzkMMWXaFriSoZaLQvQUtN59EjPoZx8lsdBnzVdPQtI9Kp287kstvrbS575thf+bZddNxQe8G3Os1dBIwA3+vOvyiz4397B1cpAvGwFzIO7F7rqT0siIHyrS4kcU7ezyVRwvByKO84y4L2m7rnRebmQ1P3Kbc9FXwslLCN/YY5NuXV9bQD0hlugDuRfyzr8LGV0Iwcr3EHDVLBSd/eFly1bwv+sfN9VujJkvlckIoxbsTES8EQAYkTUvhk9JrmuFE+US+obqV26kZ/pS8DygB5rdVau1zRmzBz+M1p/3kfBZpyhjVkxC+az2wYQecna9U2twPxLAXEGfnYrBcD2SyQzkdK4zc9hf6iBXiTs/6MyPHfIErKQfM9tMXqkaj2VcM8HQJJYRQ3jH/cibzyR9kNzzyokh3GpRaUrz0GDJvDN/QVYmh0wnwA5Db8C+47csQPupz/MQtCn/N9v4u3/zquvjiG0wWNAUkJ2RATEqj0Wj2DYQQBcmJETR4bOHvzXzrstdlpvtPABCZ858837IY2fWPVNrMvcKIuR0PHH4JCCTc7vWMZ3qEER77UZntfrLpy0ulWT2ulFB/l6EsjUajeW/sSpwLUNOCE92hmv92ImVV40+R2d6XWaCO+SYcLdxsBtm37q20uXuFETeSnq8UHi4m1IkVuiM4/ezLxn/hfldkCyYIK1Yyjrjd1mg0FWZX4lwSFrDcltvON3PbFtwiC4kvoZg4N2vGwY23VdbQvciwz4GUU3X8V9D9egTKzSFw8EdRdcwXF/ct/u0VZs3BYf+kI6QquJRQ9h6qsjQajead6U+cS05YyBZ9r95txJdc3zb+a2+exyJNBRZsxNj/eQu8rROF1iWVNnevMeJG0cDMT0JlY+CJZsPta+ZG7eTPEIJ7Jn71DUHtMFVSh7I0Gs3eoz90pSQIMyGycdl8w7FMUeOTPNH6sFk13jCqJ3FiBZFd/3Clzd2rjIgkejnZdQ+h0Loco65YwKE45dFN97rx5od7nv4uY35wSNmvGkN5boBGoxn6DFwQTBLqA+958jvMTXbcz3s3PQw3S2c9spEXWpeNOPEARlgIq4Tv8AuBbA+IFST2uNkqMO2ji5PLb7vKajw64Bs/XUrHC2VB50O3FyN7AAAgAElEQVQ0Gs0HpNSuhIV8Ivnmv4zoiz/trT3rDx8zaw7KGpEmFHZwKMbgdK6qtKl7nRE7eganfQQy3QE302vwZDtnNZOvoMy8beJXX+fUV8WU0KEsjUbz/tk9dBWTzTeewJTCp3hi50NGZLzBQmO44a9BZuPjlTZ3nzDiQlglMv7DwONbUX/p4xwAEfFtt7uJlse7HvmyQW1wKEnKV37TaDSad8uAsUMpQi3wrkeuZjzddTuPbX4IwmGXRLfyQnQrMqGxFbZ23zEiQ1gAgK6lMKdfCOb2gfoiNDjlTBU68vMvJZb84TIWGBsKTJktVMHRoSyNRvO+6J8wGLZF7KW/GvFX/7L52NXpc0RmriDMRMtLCiSfhvPW3ytt6j5jxI+awcmnQRQS4LmEIfJ93Iw0nSuS7f9q+vISYTVMptJxQCjToSyNRvOuGDBh0LZQ6FiPlltOJUb99FPc2LaXWaCO0VCjYHYY2XUjL3Fezsj1QIq4B18C1foSRKJVws0xke7cQAx7dL7l1eMisy/r75VVXJZBi4hGo3lbduU9lDdYEMrb7vkkE5men/DeDXcrJ2XITJcQ+Tjcjjcrbe4+Z8TmQPp57VfwTzgdjVcsRWj2V+TkGxV+kY1+Lde89M2eZ64zjZDJIXn/+rQ6H6LRaPbEgLFBcsJCBu956loz3/rGQpnt/SkA1Jz5Kw4AkSMuqYyR+5kD5nY7MPOTkMKFyseYFI6wG2fOyK7/18qxn3nIDs04VYpMnv77FQw1Gs2BTPkKgyzoE6k1z7KO+z6drDr2qsPdnnXNSriUVY2Xbj6F/Lr5lTZ3v3BgjZTVE0EyXSDMZyg3w2lk0kWU4P6mqxcLI9xApavzIRqNZnfK8h6EWpZy422q+eaTKaj5KR7f8RDzVxuUGZz5a5DvWltpc/cbIz+EVUbNoReA8Dy+k4tzJVwmYpsf4NneP3U88BkGAk4oI+UxTo1Goxkw34MyKAXecf+lVOYTv+bRTQ9BOkxkurnIxcEOOqfS5u5XRnwSvZx8y1KYM87H6sUmrOomXLJzMVb++AdPu4nW00W6d3L4yLO5KrisbElCvQCVRnMA099hFwCUJCxoup3zv2ymNzzxvHLSXwCA2jN/qeovvA9udBOyb95SQWv3Pwfk6Bg49AIQSiFzMUqtsLTGHze+78X/WT3qEzdV15z4BcFTeVbKhwBaRDSaA5FSFKKU9zDCPhFdeDPrfuKbHQ2fumtWYevzPTzVTo1AveRuFtk1D1TY4v3PATsyWqOPgMzHoaQ0FM9zs+agc9zYtscnXPmC8jUdCZkrEMIMLSIazQHIYPFgAZ/Mbn2Ntt51Dqwxs04q9KxfzAyfQQjlzF+NfNvyCltcGQ6oHEg55uSzIPIxiGQbl9koK7S98QQxAz9sv+9iItIJQSxbKSmgl8LVaA5M+icLWj7lJmKqY/7nAStwVX7bi4tVqsvg8e2cZ6MgU86qtKkV44AVkMyS3yBw0EcxZZ7CqEseFgCISLb+SqS772m753wDACfUIEpJnVTXaA4gBjVJJEqBt93zCSay0ZtlouU2AGzKrYIDQPCQTyK36BcVtrhyHFBJ9MG4vetQ2LABcFMwGmeSph8sR/SxHzzMkx2nOl3rpkSOucBVvDhTnRBd3qvRjHAGVWESZjO37e4LzOzWFxcpJ/2p2c0KyaVRFLavB6wAsqv/UWmTK4oeDQEEZ3wMUgpAuNSonSLrP/q7qu0/r15ec9J3po7+xK85TxcMEKa0iGg0I5cB4qEEYSGbd87/ltG39M/rx3+v+cTky7/pc3s2UGL4JAgd8X2u3g16JCxijDoMqpAGNf2M+iLCP+mkGYmlf3m94Zzrw3Ufurq8MgvQPbM0mhFFqVyXEAIlXGJU+Xjv8380ep7+fqzu9OuOTW96arvMRZl0s4KaPrjd6ytt8pDggA5hlRM86koUti+ASLUrJbnhxLZ022OOeiW5/PbLrfpZ1Nd0iJBe+3dAzxHRaEYMZRVXUMIhLOwXyRWPGt2PXcODU8/8cGbLs2tktsfgfTsFKIVvxsVwWxdX2OqhgR4By4ic8BUkXr0RAECsgKGEy43aqRepbPT+8Vc8C3/TLCmyu3pmAVpENJrhzG7lukGfzG5bRlvvOgc0OOosmW5/BgqmzMVcAKg+8ZvoW3J9RW0eSujRbxChwy5Aek1/IzQDAGeRif9JKPvzhCtfkFbjJMicFhGNZrizm3j4fTLfvoG03nkWAcgXeN+Ov6M4BgBAeNalSK2aV0GLhx565NsD9vTzUHXyj2AFatD2p2kUgKShMT9m/sjPJly1QJjVo6ksFAiheqKhRjMcGSgenFCfrdxoi2y59TQmnNy3ZLr9egDsbKXEk4TAN+nDyO94obJGD0F0DmQPiOhGwElA5ZMIHX6hym58jCgnvYhQoyq99p9zw4ddLJg/TBR3SWlJXECLiEYzHBggHpITatuKJ7tF621nGKKQ/IVMd/wSAB19+Yuy9d5lUFIiv+XJyho9RNEC8ja43WvB/LUAFAJTzyT57S9BOelnATUuvf5fs8NHfIYz20+V0CKi0QwXdhMPy1Y80ydabj3dEJneG2Sm678AoO6jvwOPb0Nu50LkDpC1Pd4PerR7B4KHfhIs0ABi2ORnS/6ovk4IqL/2bqthxmcnXPWiS0zbUK4OZ2k0Q53dxMO0lShkRcutpxlufPttMtNzlVIKNad8nyieVzzZjsxaLR7/Dj3SvQuC0z8G6ouAUIPOWXinfKaKgNpV99vjjrlowhXPu6DUUFyLiEYzVNmTeEju8tbbzjALXWvvkrnoZT9QCjce/1UieU7JXAyZ9f+qsNVDHz3KvUsCU/8DxPCDUIOO+dx8uflaAuKrvt839uiLxl/2lEtNy5DaE9Fohhx7FA8nx1vuOMt0ulbPk7n4Zy5VCo8dfRlVwpEy34fspqcqbPXwQI9w7wH/xFMAwwdi2LThogfkzp/5QXzV8+zGQy8Zf/kzLvMHDeloEdFohgq7VVvZthKZBG+5/QzTjW29V+binz1umcK6Ky6mEK6UThrZLc9W2OrhwwHbjff9kNu5CNLNQvKc7Hnw0/SIJxRUvu9Sp2f93S23fsjk6Zigtq2U4KTUBl538dVoKsPgeR7UZyue6uXNt5xiurGt98hc/LNHPq+w9vILqXTSUuQTWjzeI/r2+H1gN80F9VWBWiF60uoH5DOEgAbqbzbCY744/ornhFk9isp8nujJhhpNZRjc24r5fcrpbREtd/yHITK998hs7+dO7lZY8eGLqHKyUhaSyO94udJmDzu0B/I+KDQvhuI5QLhyyTGXk+uUgsz2folnun/XcuupzOltVizgk0q4hBCi9HoiGs3+o9RVt7+3VdAn8+3rVfMtpxgyn/irzPZ+bu4OhTfPvJQqXpDSyWjxeJ/oeSDvEx7fAaN6Aqjhx2t/X0gKra9BOZlnwSyaWnnPqf6mD8EaNV7KgkNBqF5PRKPZDwxoyS45YWG/yG5Zxlr/fg6Bwk9Equ37y5TCb868ishCUsl8AvntL1Xa7GGLFpAPAI9tg1E9CdQMIjD9bJLfsZAoJ7WA2FWJxPLbz7LqDqO+iYcIVXApCNEiotHsIwbkO4rreRhhH08uf8Rov+9iECNwpUjsvB4AefDFHFGFlJLZKPLbXqys4cMcLSAfEDe6CUZNE4gVQmjWZ5Db9CRVhcRSVj1xfXL57Rcyu4EGpx3HpcOLKxtS6LyIRrP3GCgeEgAIC1k8+sIfje7HrpGsavy5IrrpAQCs/vzbpcj0QqQ7kN2k25N8UHQOZC+QWfsQeHwnRC6B0V9+QwIwRM+GB+xxx5ze/dg12a7H/9tgQcslhBIlBXSFlkazdxg4x0OAUIMwv+l2/fM7Rs/T34/6J582V6RanwBgHHyPEpIX4PbtQEavJrhX0AKyl8isfRBO50pwqQCAw7ANN759QfjYq46LLfzfLe3zrjKJyVxiWlCyv8xXJ9c1mvdJWaWVV6ZrWgAhbutdnzbjS/60tu7062Y73etehfJastd/BshtfR7ZNQ9U2PKRgw5h7UXc7rXgmW6I3o2A5BLMMmQ+0dX0ndY7uu7/9OzctpenhWacK1gwBOU4FITpvIhG8z4oJcsBeMnygE/ydJ9su/MsM7vl+QVTf+t8OPrUj7pFutuQ2R4OAN13LUZ+8xMVtXukoQVkLyN6NyIw41y40U2Ak5XMX81Ez6ZCoXXJ3SIXH5dcNW+2b/xc4hs9QQyu0AJ0XkSj+Xfslu9QkrCwT2S3vsba7jqHuvGdtygnfYHoSzhuz1omEs0CAKpmXYrsxkcravtIRIew9gHZDY+havbXACsMcEc4sc301F4FmYt9STq5b7Te/h+ILfk7M8I+DkDnRTSad8Fu+Q5CCQvZbvzlW1nrHWdBOrlvyFz0S0cuVnCi66lys4LZIVQd/3UkV91bYetHJtoD2UcU2pbBf9x3gXQzWKhBdc1fTAptr1NVSL5qjZ61NPnGrefzZNwXOvSjLgijijuEUKZ0SEuj2Z2BkwNdQi0boJR3Pni1GVv4qz579JEfd7vX/AMAzayJAm5OyUIa9KiLkX3ld5U2f8SiPZB9SG7pL1DoWAkFgAYa1Nhr1ksABu/b+WxkzjVHx1/9yxutt33MFJmYZEFv5nr5RCjtjWgOdErXQf81IVzCgj7pJtpl802nmInldyyt+fB1R7rx7c8BMMZ9Y4tkwUalKIHTsxqFl/630rswotECsh/IrnsY+c638NKfZgAAByFGvn3FZsULs7PNS25uvuE4llr7LNUhLY1mF4NDVgCIUeXj6bXP0eabTmSF7rU3Q7on5puX7gShBgDe9sepyHe+hawu090vaAHZT+TXz8eRMz8O6otACodDOGz6bYDKxa+WSl7Vfu+neNe/fmxQy3CpaUH30dIcqJR7HQC8El3LAjUNt+vR/2e0/eOigiLmF1QudvURixRkIc2U4pzYQYQOvwj59XoVwf2FzoHsR9zeTag64Ro4sa0wIuNVZt1i4rQtYyrftzx0xMUPJ5bdfEJu66Lx/oNOU2ZtnZQFl4Lo2euaA4fdq6wUYWFbFDo2o/3uTxmp1fe/Hj7iko/kt73wIgCWWReD4jkp8wmEZn0BqTduruwOHGBoD2Q/k3jlt5Dx7aCGD3bjYeqwB5UgZsBwezatUbxwTL59xR9a/jaXJpY9wIyw7RJqorS+iPZGNCOZskS5t6YOM8EClhtfdAtr+dtJtNC95vcQzvFO74aNxAoaR7ymhDnqKEWoCRHbguTi31R6Fw44tIBUiMzafyKz5XmsuZBAuVkOStmspYDMxb5NArXndD50ZVf7vC+a0kkLFrSlkpwoJXWCXTPiGJgol1CSExa0pcz1yba7Lja7Hv96B6saf47MRr/zEaVACGNQLl9zPEF+81PIrvtnpXfhgEWHsCoI712P8Nxvg/e1waqfphILlxKn9TUm3dymUefdfEf0pZ9PTq154DCzahLxNc10IRhV0h1Q7gvosJZmeFIergIASEGIYYH5DZ5c9ZjR/o+Lab5t2bzRVyw6J/nan1eD51nP82lAulIUUqg65ktIr7ilkrtwwKM9kAqTWvx7yFQzCDVQe9b1CoAwQqMMp/2NKHjuQunmr2yfd1GmY96XTOmkJQvYotwbAXSllmb4sVuFlZKEhWwhMlHZfu9lZsf9l0SVFBcpN/uZ/NZn+oxggwFA1HzqtwogEPEd6NMhq4qjPZAhgtuzDrJvK0SiHWbVOKkA6vasIyrftyIy9zvzEstubkqv/eehLNRE/U0zXShv8iEI1d6IZtiwu9fBCbVtUIvx+Kt3GR0PfJbmW1//R+1Zv/l4Zs3816E4ZaFGKCWkKKTAW1Yjs+a+Su6CpgwtIEMIp/MtqNlXw+YZWE0nqrpP3a3yq/9hUH9tzOl88wHY4dWplfec4HRsrPWNPw5mbY1UrqRQEoRSEC+IrEVEM+TYTTiUAAglRsjihc5ttOPBK1jfkj9tY4G6y0Sq45dG7eSMzPYYs1+IivS6FESyGW7nNLhdWjyGEnqkGaJYh1wI1roIJDwOpGoczWx4DGCWnPDfhUDrL8I/Y4G6b9fM/SZqT/6mCwom8wXqeSO65FcztBgYrpIAJGF+WyoBEVv0ezP2yu8hC+nfH3Jn34/XXxbJqUKSBg+7UIlMl3Lj2+EbewIy6x6s7E5o9oj2QIYooncd+OyvwXLSqDr002rC1x9WfUvvYbAiTn7tA88adQe/kFp57zGZTc+MtWqmEXvcZK7DWpqhxECvQ+0KV/kMnl77vNE5/zKWXHnPq2bDzAt4bPPtNHI6L+xcxI5/q0emNvrAu9fBaZ0Et0eLx1BFC8hQpmUx3NgWwBdB+52XwBx7jFK5KHE732SKsJ3xXPRvv/zRtSK18u4TnJ7ttm/M0TBrawUEoUq6Wkg0FWEP4SpCmAkjaIpC51bS9c+vGtEFP02JQupale+7ipq+NpmNMkINEGrJ7T//IgxmI/3WPwCsq+CeaN4JXYU1DEivvAsQeVAzgLkrbitWajWys+NQMtv9s+ARF89MrLznnuYb55CeJ/7HUG5OsKAtABAlOVBatU3PH9HsQ3ZrQeKde4QFbSGdjOx69IdG800n0tSGx+ZVHf/VQ2W66w8AQP21DIBIL79VwfABbhbJN3R57nBAeyDDCN6zDr3PJeD0boJ/whzVM38xCh0rDSPUGHO71zxsNs58LrX6wanpNfMnQ1nU3zTbpbZBlMsplAII6U+0A9oj0ewd9uRxgFDCApYkoLJv6W1G5/zLaWbjkwvs0Ud8jse3Xm9UNyVVutuInPpDCdNWKhdF1dFX63kdwwwtIMOMQsurAM/BGnU4Um/cDFY3VRr+GupGN1FiBZplpvtO2OH1qTUPHJ7Z+NQo6m8k/vEzXWIwojinxVtELSSaD8zuwiEBAk84CBXJFQ8YnY98mSaX376GWMGvyGzPD4gVbJHZXmbWHEQYIAqr5kHVHwxnxyvItyyu5O5o3gc6hDVMSb81D8CFsOunI3jGL+RqpQQL1DEARKS7HrjEzR3uRLf8V8d9l3S33Haumd28iDK/xanPUlCSKCkUgP6JiDq0pXm3lJ0vxVCVIIAizG8papk8+eYjtPlvpxmdD1252endfPXvnMwske58CAChvmp6ulIidPafJCLj4Ez9GvKr/lHZHdK8b/St5wggMvd7yG55HKHDPgWj+iD0Lfo/dvBv14m1XyBo+PQ/ansf+fI3AHVNYNIpNTVzv4XgjNM5IaAi7xIoSUBYST10sl3zthSdVyiFAXM5mM+USkGm1zxhxJdcj1zzqzth+H5zwoqeW5bOIO6H+hSWTJvJIqf9ROQzW5Ff8Q+EJp6Dvlf1Yk/DHR3CGgEUWhZDZnpg1R+C+PP/Df/Us1Rq1ULw6FbGqidl81uffan69B/flV51n0qtuvfw7LaX/dRXT+zR0zm1DQKhSDFurQDoCYmaAZSdC145rpKEUAbmNxWhjKfXP2t0PXoNjb/yh1ae6r5u8q/6Lo89/v2lVuN1MrXy7yz2zA4FM6QSC66Dr+YQ5DY+gXyrDleNBLSAjCAK7csBAOa4o5BedjN84+cqpRzC41uZWXNQqtC8+Lmak6+9O7N2fja1+v5DMpufD0MaxB59uGRBU0FQAukWfxvp/wfQXsmBxqCQpoKSACSIYYEFDCkdqZJv3sd6Hv82iy/5YztPtP3PmKtXXp5a/OtF1ugTeX7HQsPt3SKpHVHpN2+HNfYEuJ0rUGhbVqE90uwLtICMQNyOVQAAe9LJyKy6G6EJRytFfcTtXsvMummJQuvSBfVnX39H+q15Xel1j0xKr3+0Qeay1Ko/WBmRsCRgVAkOQAKEAp5TAu2VjHwGfccKShAAoLYF6jcEj3eR2Mt/Zt2Pf4Mml9+xlWd6ftVw0f1XZpbfssAYfbTjti5hSkmFSKPMrrgT1rjj4XathNu5onI7pdln6CT6CCaz8i4AAKk+GNe9dZ8CIGQhSQizmBvb1itz8d+f42QOE6mui3ue/sErzTccTzvnf9vId6wlzG8JFrAVIRRQAkpJL2FaTKDqpPvIYdB3qpSSCkqAEAoWsCXzWyLfuop03v81Y+eNx9PoC9e9LHN9l855K3uIysd/63SuShjBUUZh50Ji108T6TduAUEYAJBZdUdF902zb9G3kwcQ4aMuQ9uKOzDr84+j+827SWHnK+zgG9v4us9bgHRhNh56ihvb+jVqhz/pb5pjVM36DEKHfJyzsA/KAZOui7Kke79XAugQ13Ck5G30V1QpAYCAWhaIBSnSBZVe96iRXHkPcjuXONLJPGw1zrjB6Vi5CMzG5B8lsfO3Y5nv4HOklelV8c1Pwnfk5civ1KJxoKCv+gOQwDFXIrv8NpgfvxF28xIU2lcwt3utZNVNSvQ1I3jIJ2Zkt75wtRKFS83aKY2hGR9D1VGfg2/84S5hYDIPokTB+2WEATrENWzYXTQkAEUIsxS1iYKCyLetN5Nv/h3pdY/CiW3rJMy6Mzj9nNvTq+/bbNRNBY9uIWbjodRuPEy4o47Gxc9/Dw8c/SXk3tSTAA80dA7kAMTteBMAEKmfgeSym3DhA91q29rNoADliWZiVk/ocXvWP1N30X235jY9uSm75blgatW8idmtCw3lcmLWHKSMqqCkhkEgCYHkpL/GU4vJkGOPolGspKK2qajPECKTIslV82nPM/+PRV+4DtntC5cSav5i1MUPfiW1/NYnjOqmmBvdTK3GQ4l10CnqQ19/Xq2/+0JUjZmFV6/8CLjOcRyQaAE5gMm3LAUArN2Zgy+xE9WNo1XWP0qZhp+6vZsojUzIOTtfXgmev9s/9SMP5rYv7MlseHxUatW8xnzrKqokIUakSRphv6SMUQgAas9iUvyhYvt6oLFnT6MoGpapWMDgihNkty5i0Rf/j/Y+/T2SXHnvdje+42bf+Dlf59FNv5BOZrlROzWf3/4SsxpmAjVTVKRmohLZXqzfvgpoXtx/DmkOTPQVrRlA+OjLUXPYechsW4h01wbIxE7mdq+TvkkfUvkdC/ElpeidjYef6sQ2fZZQ4zyjalxtYMrpCM08H4HJp3IWsqE4mHIVlHABqGIlV7+iaO9kHzBIMID+nAZAqAliUUUNCJEVLNe6jGY2PoXs1ufhdK/vkU7qcat+xsPTfrv62bWfJwV7wokotCyBWTPZMMccKcyaSWrshb9Dy9+vQHqFzm9odqGvYs0eiZzyX0gtuh5HrHGx8eOnA4af5LcvZIfMS/PNX54ON7oJtWf/sTb56l8+xuNbP0EM3xlm9cRwSUz8E0+ULOQXAJh0QBTngBQEhKhSaTCgBeX9Uu7VDQ5NgTJFmAlqQREKwdMFI7dzCclsegq5HS/DjW/vEOnuJ1nV2GciJ3/vmdgT30ia9Qej5oxfo/u+TzL/1LOUEnk56uzfYudfj0XVnGuQXPrniu6vZmiir1rNOxKc/VXUffqvSDz7fyhsehKEEJbbvkAFZ31e5re9AJFqQ+Tk747OrH7wXJ5s/Rg1AycZkQm1vvGz4Z94EgJTPwyzdhJnPkC6oMoFUdItCgothru0h/Lv2KNgQAFSEhCiCDNBTKKoCSELIG6iy8jteBmljSdbm0Uu/rgZaXqy6vj/XBB9+ttZGmiAb8rpyK6+n/oPOpVIwYU9+Uz4ppyBzJt3IbPi5orus2boo69SzXsifNTnYddPhRtvRj66jaCQZIX2N0Rg+jkq37oMMtONqjnfCue3LzjN6Vw5l/iqzyLMnGGPnmX5xx+LwJQz4Bt/nGLBMKcWiOKg0gWBFFCCExCo8pAXcOCJyh7EAl4HKrXLw6AmiAFFLUglAJ7OGIX2FchuW4h823IU2lcUJM9tlpmeZ8yGQ54d97nHFu74/dQCC42Br2kuMuvmU3viSURJIfxjZsGoHg0nug2p5TkAegVAzbvjwLgiNXsd30k/gNG2GD47gKxZA5npJjIXY07HSmE3zVUi3QUe2wKlFPFPPHWKE9v4HzLdOYcGGs6gvvBoe9QRsEcdCl/THPjHzwYLNbrMD6JEyUORUFLsCnuBAITuJiql58ORPQuF906/WBCqCDUASkFNKFL0MEQ2ZTjd65FreQ1O1xrkmpcKkYu3iGTrszQ4ajmrGv/cT9vf2HktIZJFJqBq1qWIL/pf5j/odMh8n/AddApooA48th2pFbdX5gBohj3D88rTDCkic7+H3PanYddOAqwG5FtehREezXLbXsBhjyix/rKpkPleqHwCDZ+83ZdadsucfMeKEyDFHGqF5hBm11ujD4PdOBO+8bPhb5oLIzJOUNuW1AJRElRxECUASOEJi5LoD315jwNsGioCs4fk9oB3vbyF8sJQ1AAIBWFEEQOKGJDKBUTeNUQ2Sgpty5FvewNOz0bkO1Y6ys118ETLC2D2W0b1pAXjrn5j/c5fBFxihQHDj2m/7sKmrxPmn/xhKCcl7INOBQs1wu3ZiJRe8U+zF9ACotnrhOdcA6vpBIhkG/IbnobiDoEssELbMhk87NPS6VgON7oFAFB7xs8C2a0vHOt0rT5OZqOH0GDjqRCFMWb1JL9ZOxlGzSTYjTNhjzocZv00xfw1gvqIIgxUiaKoCBBvPpyEUkVxUYoARIGA9J/mexCad+LtB/+3o/jZ8jyFtya9F5ojFIRQgFIQBkVYUSgEIPOg0kkznmxHoXMVnJ4NcOM74UY3wYluTRPC2nmy5VkabFhHzfDz4y97ZMeO64/wul+aIVSf9D30Lfhv6pswh0oFweyAsieeBhaohduzDsnX/vKe9l2jeSe0gGj2Lcdfi9rcZli1k5DJuyjseAksWE95fAd1Y1u5b/KHIVLt4IkWKCeN419S5psXH9lImHV6oW1ZE4DDaaD+OOVm66kvErbqD4ZR3QSzeiLMmkkwqyfCqJ4EI9SgiBmQ1DQltQBQEEgQJUG8DuQgkMVxXaniJksLW0DQT8QAAAS/SURBVHi27so3lJbaIv0vDPBiBgoSIXSXOBGAUKjiI0ChCIMEAOWWcj4OlYUk3Ph2OL2b4Ma2gSfbwROtcKKbXeVkEiB0O080v0LMQJtZd/B6p3PNq0c/6qZWnEdcYgah3DxqTvkO4ot+Q+2xR1OYIaFEQQUmngrDH4KbaEEibgFbtGho9h1aQDT7lcgp30Vu0R/gnzAHasxM5LYtBKsaS2Wmhzpdq+WYzz4uux66HMwXgRvzvJRjn1T2yquODRl21fG8b8d0Ht9eB2IcRf3Vhyqej0AKiwUbAkZkPIzQaLBgPVigHixYBxaoKz5vAAvUg/qrQZgtiWErwgxvoCfwBvqSg0L7X/Mort3oiY8nSCVR8rwglyrhAMKFdHOQuT6IbBQ80wWR6YHI9EDmk5CFJEQ+AZ5sEzzRmiKUJaSb3SpSHStAaI/VOLOLF9LLDDO0/afdqws/IEQCAA00Qma7Me6ql9B266nM13QiUVIIAqWsppNh2xZ4qg1xNQZYrhdp0uw/tIBoKsvJ16I23QIWHoec4BDtKyByUcIC9dTt3Uh4sk2M/cLTqv2Bz8CsGgeR6oDM9gAAZv5Z+Tf/ajZV+Xi1EZlwqMzFmniyvVZme30AxlFf9XRi2OOUFBHF8yaUNKkdDlJ/LZi/BtQXAWEWCDNBqPcIZngT75gJQk2AMijJi2ExCaUkIKXXoZgXIAoJyFwCIhd3Rba3oNycIIYlCWUFgPRKJ9Msc7F1AOIs0JAj/tou4WY3qGTLpnGXv8Db7vhwvnQoaLARMt8HIzQOJ7y2Da/MIMwaPYuwYIN0oluV3ThDmaOPAjFsiHQnUq/fWKEvTaPx0AKiGXJUzf0e5M5nYI09EpxGwHs3oBDbRsyaSUTlE7S4KBEf/el56HzkKwDPwaqfDpnvA0+2ozQDGwCOe1FZ2/73d1bvcz9UNNhQZTVMnwKRHy0L6WrlZi3FHVPxgqF4gUmRY+AFhn4/pB8FQIIwQcyASwzbJcwqEGZniWknARrnvBBT8a2dAHLm6Fmk+tjLxVEPfcN51iK8fN+IHYEqJAAAdWf8HNHnfwwAzGyYQYzwWCXcrFTpHuWbOBe0ajSoXQWZiSKx5A/79JhrNO8HLSCaYUPoxO+CRaZC5HpBMy3gfduRb30DLFBHjJpJBDxPRC5G3Nh2KDcjlVJy4tdWIPrSr5BZNx8AYI4+AhAOlJOGdLJQwoHiBexaifFdQhgIswDD9sJZbg6QXodiGpmA4OTTMOpTd2HLjwkAMFY1jhihMaC+iJKSK7d7rfSNPRpG9UTAXwdi+qByCSSXaqHQDB+0gGhGDOGTroWV3AgaHo2CCgBOHCLdDZ5sh9OzATQ0mlh1BxEoECUcQLpESe717BIulHAgeR6qtDkZgFBQuwrECoIafhDTB8LsUuhLgZle1ylegBvdpJBPKBYZByPYACM8DizYCGlXeeEwnkVy8e8qfZg0Go1Go9FoNBqNRqPRaDQajUaj0Wg0Go1Go9FoNBqNRqPRaDQajUaj0Wg0Go1Go9FoNBqNRqPRaDQajUaj0Wg0Go1Go9FoNBqNRqPRaDQajUaj+f/twQEJAAAAgKD/r/sRKgAAAAAAAAAAAAAAAAAAAAAAAPAUshn4Vo4H5YEAAAAASUVORK5CYII=;strokeColor=#007FFF;" parent="1" vertex="1">
          <mxGeometry x="160" y="480" width="50" height="50" as="geometry" />
        </mxCell>
      </root>
    </mxGraphModel>
  </diagram>
</mxfile>
